<svg width="100" height="100" viewBox="0 0 100 100" fill="none" xmlns="http://www.w3.org/2000/svg">
<g clip-path="url(#clip0_1903_17)">
<path d="M12.9583 13.5208C9.52389 13.5285 6.23236 14.8963 3.80387 17.3248C1.37538 19.7533 0.00765371 23.0448 -5.04557e-05 26.4792V57.0833C-0.00446136 58.1122 0.194927 59.1317 0.586608 60.0831C0.978289 61.0344 1.55451 61.8988 2.282 62.6263C3.0095 63.3538 3.87388 63.93 4.82524 64.3217C5.7766 64.7134 6.79612 64.9128 7.82495 64.9083H18.6083V21.35C18.6083 18.3083 19.9124 15.5208 21.9999 13.5208H12.9583ZM29.3916 13.5208C28.3621 13.5159 27.3418 13.715 26.3897 14.1067C25.4375 14.4984 24.5725 15.0749 23.8445 15.8029C23.1165 16.5309 22.54 17.3959 22.1483 18.3481C21.7566 19.3002 21.5575 20.3205 21.5624 21.35V32.125H92.1749V32.2125C95.2166 32.2125 97.9999 33.5167 99.9999 35.6042V26.4792C99.9922 23.0448 98.6245 19.7533 96.196 17.3248C93.7675 14.8963 90.476 13.5285 87.0416 13.5208H29.3916ZM81.3916 35.0875V78.65C81.3916 81.6917 80.0874 84.4792 77.9999 86.4792H87.0416C90.476 86.4715 93.7675 85.1038 96.196 82.6753C98.6245 80.2468 99.9922 76.9552 99.9999 73.5209V42.9167C100.004 41.8879 99.805 40.8683 99.4133 39.917C99.0216 38.9656 98.4454 38.1012 97.7179 37.3737C96.9904 36.6462 96.126 36.07 95.1747 35.6783C94.2233 35.2867 93.2038 35.0873 92.1749 35.0917L81.3916 35.0875ZM-5.04557e-05 64.4792V73.5209C0.00765371 76.9552 1.37538 80.2468 3.80387 82.6753C6.23236 85.1038 9.52389 86.4715 12.9583 86.4792H70.6083C71.6375 86.4836 72.6573 86.2841 73.609 85.8921C74.5606 85.5002 75.4252 84.9236 76.1527 84.1957C76.8803 83.4677 77.4564 82.6029 77.8478 81.651C78.2393 80.6992 78.4382 79.6792 78.4333 78.65V67.875H7.82495C4.78328 67.875 1.99995 66.5625 -5.04557e-05 64.4792Z" fill="#4285F4"/>
</g>
<defs>
<clipPath id="clip0_1903_17">
<rect width="100" height="100" fill="white"/>
</clipPath>
</defs>
</svg>
