<svg width="100" height="100" viewBox="0 0 100 100" fill="none" xmlns="http://www.w3.org/2000/svg">
<path d="M76.8313 23.1608C74.0188 28.0208 71.1979 32.8767 68.3837 37.7358C68.2312 37.6713 68.0746 37.6167 67.92 37.5567C60.3162 34.6579 53.4033 34.2233 49.5033 34.2775C41.7737 34.3546 35.5267 36.2121 31.7546 37.6954C31.4046 37.0729 24.4521 25.1079 23.3317 23.1688C23.1646 22.8833 22.9682 22.6161 22.7458 22.3713C21.3658 20.8546 18.9733 20.3467 17 21.5254C15.0208 22.7004 14.0267 25.4258 15.3808 27.7833C23.4917 41.8233 14.9783 26.8842 23.4946 41.7804C23.5662 41.9096 21.4337 42.8813 17.6921 46.0208C12.0779 50.7333 1.88333 61.55 0 79.1258H100C99.5042 74.4975 98.4642 70.38 96.8912 66.3413C93.7921 58.3754 89.21 52.6213 85.4737 48.9096C82.7875 46.2399 79.8092 43.8813 76.595 41.8783C79.3425 37.2033 82.0617 32.4788 84.7821 27.775C85.6475 26.2688 85.5679 24.46 84.7492 23.1121C84.3767 22.4867 83.8606 21.9589 83.2436 21.5726C82.6267 21.1863 81.9266 20.9524 81.2012 20.8904C79.0242 20.6671 77.2879 22.1938 76.8313 23.1608ZM76.6683 58.415C78.3117 60.8842 78.0183 63.9592 76.0171 65.2913C74.0175 66.6233 71.0671 65.7017 69.4254 63.2325C67.7821 60.7629 68.0754 57.6879 70.0767 56.3558C72.0462 55.0433 74.9983 55.9038 76.6683 58.415ZM30.0292 56.3638C32.0304 57.6958 32.3233 60.7708 30.6804 63.2404C29.0387 65.7096 26.0812 66.6313 24.0804 65.2992C22.0804 63.9671 21.7875 60.8921 23.4292 58.4225C25.0992 55.9138 28.0487 55.045 30.0292 56.3638Z" fill="#3DDC84"/>
</svg>
