<svg width="100" height="100" viewBox="0 0 100 100" fill="none" xmlns="http://www.w3.org/2000/svg">
<g clip-path="url(#clip0_1903_15)">
<path d="M85.7083 73.8958H78.1458L64.2291 35.55H71.0333L79.45 60.4958C79.7625 61.4583 80.5875 64.2458 81.8916 68.8792L83.1291 64.725L84.5041 60.5333L93.2291 35.5167H100L85.7083 73.8958ZM63.4416 73.6208C61.3381 74.2006 59.1653 74.4907 56.9833 74.4833C51.8583 74.4833 49.3166 71.5958 49.3166 65.7875V40.1917H44.8875V35.55H49.5583V29.5042L55.7083 26.9958V35.5875H62.8208V40.225H55.75V64.4125C55.75 66.2708 56.0583 67.5375 56.6416 68.2958C57.225 69.0542 58.2916 69.3958 59.7666 69.3958C60.6291 69.3958 61.8291 69.225 63.4458 68.9167L63.4416 73.6208ZM33.0666 51.3583C33.1375 58.7083 39.525 61.1833 39.5958 61.2167C39.525 61.3917 38.5625 64.725 36.2291 68.125C34.2 71.0833 32.1041 74.0333 28.7708 74.1042C25.5083 74.1708 24.4791 72.1792 20.7291 72.1792C17.0208 72.1792 15.8541 74.0333 12.7583 74.1708C9.59997 74.275 7.1583 70.9417 5.09997 67.9875C0.941633 61.9417 -2.2542 50.9125 2.04163 43.4875C4.16663 39.7792 7.9833 37.4417 12.1083 37.4042C15.2333 37.3375 18.225 39.5375 20.15 39.5375C22.0708 39.5375 25.6791 36.925 29.4583 37.3042C31.0416 37.3708 35.5083 37.9583 38.3583 42.1125C38.1166 42.25 33.0333 45.2083 33.0666 51.3583ZM26.95 33.2833C28.6333 31.2208 29.8041 28.3667 29.4916 25.5167C27.0541 25.6208 24.1 27.1333 22.3125 29.1958C20.7291 31.0167 19.3541 33.9375 19.7333 36.7208C22.45 36.9292 25.2666 35.3125 26.95 33.2833Z" fill="white"/>
</g>
<defs>
<clipPath id="clip0_1903_15">
<rect width="100" height="100" fill="white"/>
</clipPath>
</defs>
</svg>
