<svg width="100" height="100" viewBox="0 0 100 100" fill="none" xmlns="http://www.w3.org/2000/svg">
<path d="M82.6929 23.3117C82.6929 19.9883 79.9993 17.3047 76.6883 17.3047C73.377 17.3047 70.6811 19.9883 70.6811 23.3117C70.6811 26.623 73.377 29.3065 76.6883 29.3065C79.9993 29.3065 82.6929 26.623 82.6929 23.3117" fill="url(#paint0_linear_1902_47)"/>
<path d="M90.694 70.2018C90.4716 75.0772 89.6561 77.7261 88.9791 79.4854C88.0698 81.8181 86.985 83.4861 85.2257 85.2356C83.4861 86.985 81.8181 88.0674 79.4854 88.9667C77.7261 89.6538 75.0672 90.4716 70.192 90.704C64.9213 90.9362 63.3596 90.9857 49.9938 90.9857C36.6404 90.9857 35.0663 90.9362 29.7956 90.704C24.9204 90.4716 22.2739 89.6538 20.5144 88.9667C18.1694 88.0674 16.5139 86.985 14.7644 85.2356C13.0025 83.4861 11.9178 81.8181 11.0208 79.4854C10.3437 77.7261 9.51598 75.0772 9.30582 70.2018C9.04896 64.9311 9.00188 63.3447 9.00188 50.0062C9.00188 36.6404 9.04896 35.0663 9.30582 29.7956C9.51598 24.9204 10.3437 22.2739 11.0208 20.4996C11.9178 18.1695 13.0025 16.5113 14.7644 14.7618C16.5139 13.015 18.1694 11.9301 20.5144 11.0208C22.2739 10.3314 24.9204 9.52581 29.7956 9.2936C35.0663 9.0612 36.6404 9.00189 49.9938 9.00189C63.3596 9.00189 64.9213 9.0612 70.192 9.2936C75.0672 9.52581 77.7261 10.3314 79.4854 11.0208C81.8181 11.9301 83.4861 13.015 85.2257 14.7618C86.985 16.5113 88.0698 18.1695 88.9791 20.4996C89.6561 22.2739 90.4716 24.9204 90.694 29.7956C90.9386 35.0663 90.9979 36.6404 90.9979 50.0062C90.9979 63.3447 90.9386 64.9311 90.694 70.2018V70.2018ZM99.696 29.3854C99.4514 24.0579 98.6111 20.418 97.3633 17.2478C96.0933 13.9588 94.3907 11.1715 91.6034 8.3842C88.8285 5.6093 86.0412 3.9067 82.7522 2.62183C79.5695 1.38626 75.942 0.536159 70.612 0.303944C65.282 0.0468955 63.5795 3.17892e-07 49.9938 3.17892e-07C36.4204 3.17892e-07 34.7056 0.0468955 29.3756 0.303944C24.0578 0.536159 20.4328 1.38626 17.2354 2.62183C13.9588 3.9067 11.1715 5.6093 8.39661 8.3842C5.60929 11.1715 3.90669 13.9588 2.62423 17.2478C1.38865 20.418 0.548568 24.0579 0.291519 29.3854C0.0593046 34.7154 0 36.4205 0 50.0062C0 63.5796 0.0593046 65.282 0.291519 70.612C0.548568 75.9297 1.38865 79.567 2.62423 82.7522C3.90669 86.0288 5.60929 88.8285 8.39661 91.6034C11.1715 94.3783 13.9588 96.0933 17.2354 97.3758C20.4328 98.6112 24.0578 99.4514 29.3756 99.6961C34.7056 99.9407 36.4204 100 49.9938 100C63.5795 100 65.282 99.9407 70.612 99.6961C75.942 99.4514 79.5695 98.6112 82.7522 97.3758C86.0412 96.0933 88.8285 94.3783 91.6034 91.6034C94.3907 88.8285 96.0933 86.0288 97.3633 82.7522C98.6111 79.567 99.4514 75.9297 99.696 70.612C99.9407 65.282 100 63.5796 100 50.0062C100 36.4205 99.9407 34.7154 99.696 29.3854V29.3854Z" fill="url(#paint1_linear_1902_47)"/>
<path d="M49.9937 66.6584C40.7941 66.6584 33.3292 59.2057 33.3292 50.006C33.3292 40.7916 40.7941 33.3292 49.9937 33.3292C59.196 33.3292 66.6708 40.7916 66.6708 50.006C66.6708 59.2057 59.196 66.6584 49.9937 66.6584V66.6584ZM49.9937 24.3149C35.8125 24.3149 24.3273 35.8248 24.3273 50.006C24.3273 64.175 35.8125 75.6727 49.9937 75.6727C64.175 75.6727 75.6726 64.175 75.6726 50.006C75.6726 35.8248 64.175 24.3149 49.9937 24.3149Z" fill="url(#paint2_linear_1902_47)"/>
<defs>
<linearGradient id="paint0_linear_1902_47" x1="0.901947" y1="98.9661" x2="91.671" y2="8.19743" gradientUnits="userSpaceOnUse">
<stop stop-color="#FFD521"/>
<stop offset="0.05" stop-color="#FFD521"/>
<stop offset="0.501119" stop-color="#F50000"/>
<stop offset="0.95" stop-color="#B900B4"/>
<stop offset="0.950079" stop-color="#B900B4"/>
<stop offset="1" stop-color="#B900B4"/>
</linearGradient>
<linearGradient id="paint1_linear_1902_47" x1="0.901986" y1="99.0906" x2="91.7455" y2="8.24707" gradientUnits="userSpaceOnUse">
<stop stop-color="#FFD521"/>
<stop offset="0.05" stop-color="#FFD521"/>
<stop offset="0.501119" stop-color="#F50000"/>
<stop offset="0.95" stop-color="#B900B4"/>
<stop offset="0.950079" stop-color="#B900B4"/>
<stop offset="1" stop-color="#B900B4"/>
</linearGradient>
<linearGradient id="paint2_linear_1902_47" x1="0.925501" y1="99.093" x2="91.7471" y2="8.27131" gradientUnits="userSpaceOnUse">
<stop stop-color="#FFD521"/>
<stop offset="0.05" stop-color="#FFD521"/>
<stop offset="0.501119" stop-color="#F50000"/>
<stop offset="0.95" stop-color="#B900B4"/>
<stop offset="0.950079" stop-color="#B900B4"/>
<stop offset="1" stop-color="#B900B4"/>
</linearGradient>
</defs>
</svg>
