<svg width="100" height="100" viewBox="0 0 100 100" fill="none" xmlns="http://www.w3.org/2000/svg">
<g clip-path="url(#clip0_1903_4)">
<path d="M4.58333 25.2083C2.025 25.2083 6.61706e-08 27.2083 6.61706e-08 29.7083C-0.000102485 30.3063 0.118996 30.8984 0.350336 31.4499C0.581675 32.0013 0.920615 32.5011 1.34734 32.9201C1.77407 33.3391 2.28003 33.6688 2.83566 33.89C3.39128 34.1112 3.98541 34.2194 4.58333 34.2083C7.16667 34.2083 9.20833 32.2083 9.20833 29.7083C9.20833 27.2083 7.16667 25.2083 4.58333 25.2083ZM36.2917 25.2916C22.2917 25.2916 13.5417 34.8333 13.5417 50C13.5417 65.2916 22.2917 74.7916 36.2917 74.7916C50.2083 74.7916 59 65.2916 59 50C59 34.8333 50.2083 25.2916 36.2917 25.2916ZM81.4583 25.2916C71.0417 25.2916 63.625 31.0416 63.625 39.5833C63.625 46.375 67.8333 50.625 76.6667 52.6666L82.875 54.1666C88.9167 55.5416 91.375 57.5416 91.375 61C91.375 65 87.3333 67.8333 81.5833 67.8333C75.7083 67.8333 71.2917 64.9583 70.8333 60.5416H62.5C62.8333 69.375 70.0833 74.7916 81.0833 74.7916C92.7083 74.7916 100 69.0833 100 60C100 52.875 95.8333 48.8333 86.1667 46.625L80.625 45.375C74.75 43.9583 72.3333 42.0833 72.3333 38.9166C72.3333 34.9166 76 32.25 81.4167 32.25C86.875 32.25 90.625 34.9583 91.0417 39.4166H99.2083C99 31 92.0417 25.2916 81.4583 25.2916ZM36.2917 32.5833C44.7917 32.5833 50.25 39.375 50.25 50C50.25 60.7083 44.7917 67.5 36.2917 67.5C27.7083 67.5 22.2917 60.7083 22.2917 50C22.2917 39.375 27.7083 32.5833 36.2917 32.5833ZM0.4625 38.7916V74H8.75V38.7916H0.458333H0.4625Z" fill="white"/>
</g>
<defs>
<clipPath id="clip0_1903_4">
<rect width="100" height="100" fill="white"/>
</clipPath>
</defs>
</svg>
