<svg width="100" height="100" viewBox="0 0 100 100" fill="none" xmlns="http://www.w3.org/2000/svg">
<g clip-path="url(#clip0_1903_37)">
<path d="M46.4706 60.7059C46.4706 69.1176 42.0882 74.4118 35.0882 74.4118C28.0882 74.4118 23.7059 69.0882 23.7059 60.7059C23.7059 52.2647 28.0882 46.9706 35.0882 46.9706C42.0882 46.9706 46.4706 52.2647 46.4706 60.7059ZM56.2353 31.0294L53.1765 31.2353C51.4412 31.3529 50.6765 31.9706 50.6765 33.0882C50.6765 34.2647 51.6471 34.9118 53 34.9118C54.8529 34.9118 56.2353 33.7059 56.2353 32.0882V31.0294ZM100 50C100 77.9118 77.9118 100 50 100C22.0882 100 0 77.9118 0 50C0 22.0882 22.0882 0 50 0C77.9118 0 100 22.0882 100 50ZM61.5882 30.4118C61.5882 34.4706 63.8235 36.9412 67.4706 36.9412C70.5588 36.9412 72.5 35.2059 72.8235 32.7353H70.4118C70.0882 34.0882 69.0294 34.8235 67.4706 34.8235C65.4118 34.8235 64.1471 33.1471 64.1471 30.4118C64.1471 27.7059 65.4118 26.0882 67.4706 26.0882C69.1176 26.0882 70.1471 27.0294 70.4118 28.2353H72.8235C72.5 25.8235 70.6176 24 67.4706 24C63.8235 23.9706 61.5882 26.4412 61.5882 30.4118ZM27.9706 24.2353V36.7059H30.4412V29.0588C30.4412 27.4412 31.5882 26.1471 33.0882 26.1471C34.5588 26.1471 35.5 27.0294 35.5 28.4412V36.7059H37.9118V28.8235C37.9118 27.3235 38.9412 26.1471 40.5588 26.1471C42.1765 26.1471 42.9706 26.9706 42.9706 28.7059V36.7059H45.4412V28.0882C45.4412 25.5 43.9706 23.9706 41.4412 23.9706C39.7059 23.9706 38.2647 24.8529 37.6471 26.2059H37.4412C36.8824 24.8529 35.7059 23.9706 34 23.9706C32.3235 23.9706 31.0588 24.7941 30.5294 26.2059H30.3529V24.2059L27.9706 24.2353ZM50.8529 60.7059C50.8529 49.8529 44.7941 43.0294 35.0882 43.0294C25.3824 43.0294 19.3235 49.8529 19.3235 60.7059C19.3235 71.5588 25.3824 78.3529 35.0882 78.3529C44.7941 78.3529 50.8529 71.5294 50.8529 60.7059ZM52.3824 36.9118C54.0294 36.9118 55.3824 36.2059 56.1471 34.9412H56.3529V36.7059H58.7353V28.1765C58.7353 25.5588 56.9706 24 53.8235 24C50.9706 24 48.9706 25.3824 48.7059 27.4706H51.0882C51.3529 26.5588 52.3235 26.0588 53.7059 26.0588C55.3824 26.0588 56.2647 26.8235 56.2647 28.2059V29.2941L52.8824 29.5C49.9118 29.6765 48.2353 30.9706 48.2353 33.2353C48.2059 35.4706 49.9706 36.9118 52.3824 36.9118ZM79.3529 68.0588C79.3529 63.2059 76.5294 60.3824 69.4118 58.8235L65.6176 58C60.9412 56.9706 59.1176 55.1176 59.1176 52.4412C59.1176 48.9706 62.4118 46.8824 66.6765 46.8824C71.1471 46.8824 74.0882 49.1765 74.4706 52.9412H78.7353C78.5294 47.1471 73.6176 43.0588 66.7941 43.0588C59.7059 43.0588 54.7353 47.0294 54.7353 52.6471C54.7353 57.5 57.7059 60.6176 64.5588 62.1176L68.3529 62.9412C73.0882 63.9706 75 65.8824 75 68.7353C75 72.0882 71.6176 74.5294 67 74.5294C62.0882 74.5294 58.6765 72.2941 58.1765 68.6176H53.9118C54.3235 74.5294 59.2941 78.3529 66.7647 78.3529C74.3824 78.3529 79.3529 74.3824 79.3529 68.0588Z" fill="white"/>
</g>
<defs>
<clipPath id="clip0_1903_37">
<rect width="100" height="100" fill="white"/>
</clipPath>
</defs>
</svg>
