<svg width="100" height="100" viewBox="0 0 100 100" fill="none" xmlns="http://www.w3.org/2000/svg">
<path d="M0 61.3625H3.92083V51.1417C3.92083 49.125 5.24583 47.6625 7.13333 47.6625C8.9625 47.6625 10.0917 48.8125 10.0917 50.6709V61.3625H13.9042V51.0417C13.9042 49.0417 15.1958 47.6584 17.0875 47.6584C19.0042 47.6584 20.0792 48.825 20.0792 50.8667V61.3584H23.9958V49.9084C23.9958 46.5709 21.8417 44.35 18.55 44.35C16.1417 44.35 14.1583 45.6417 13.3542 47.7042H13.2583C12.6458 45.5625 10.9583 44.35 8.6 44.35C6.32917 44.35 4.56667 45.625 3.84167 47.5625H3.7625V44.6667H0V61.3584V61.3625ZM32.5833 58.6709C30.8833 58.6709 29.75 57.8042 29.75 56.4334C29.75 55.1084 30.8333 54.2584 32.725 54.1334L36.5833 53.8959V55.175C36.5833 57.1875 34.8042 58.6709 32.5833 58.6709ZM31.4 61.6292C33.5417 61.6292 35.6375 60.5125 36.6 58.7H36.675V61.3625H40.4583V49.8625C40.4583 46.5125 37.7625 44.3209 33.625 44.3209C29.3708 44.3209 26.7083 46.5584 26.5375 49.675H30.175C30.425 48.2917 31.6083 47.3917 33.4667 47.3917C35.4 47.3917 36.5833 48.4 36.5833 50.15V51.3459L32.175 51.5959C28.1083 51.85 25.825 53.6292 25.825 56.5917C25.825 59.5959 28.175 61.6292 31.4 61.6292ZM57.6708 50.6209C57.4 47.1084 54.675 44.3209 50.2667 44.3209C45.4167 44.3209 42.2667 47.675 42.2667 53.0167C42.2667 58.4334 45.4167 61.6917 50.3 61.6917C54.4875 61.6917 57.3708 59.2334 57.6833 55.5042H53.9833C53.6208 57.3917 52.3292 58.525 50.3458 58.525C47.8583 58.525 46.2542 56.5125 46.2542 53.0167C46.2542 49.5834 47.8417 47.5042 50.3167 47.5042C52.4083 47.5042 53.65 48.8417 53.9667 50.6209H57.6708ZM69.7792 38.2584C63.15 38.2584 58.9917 42.7792 58.9917 50.0084C58.9917 57.2375 63.15 61.7417 69.7833 61.7417C76.3917 61.7417 80.55 57.2375 80.55 50.0084C80.55 42.7792 76.3958 38.2584 69.7792 38.2584ZM69.7792 41.725C73.825 41.725 76.4083 44.9334 76.4083 50.0084C76.4083 55.0625 73.825 58.275 69.7833 58.275C65.7167 58.275 63.15 55.0667 63.15 50.0084C63.15 44.9375 65.7167 41.725 69.7792 41.725ZM82.2042 54.9667C82.3792 59.1584 85.8125 61.7417 91.0375 61.7417C96.5375 61.7417 100 59.0334 100 54.7167C100 51.3292 98.0458 49.425 93.4333 48.3709L90.8208 47.7709C88.0292 47.1125 86.8833 46.2292 86.8833 44.7167C86.8833 42.8292 88.6125 41.5667 91.1833 41.5667C93.7792 41.5667 95.5583 42.8417 95.75 44.9709H99.625C99.5292 40.9709 96.2208 38.2625 91.2125 38.2625C86.2667 38.2625 82.7542 40.9834 82.7542 45.0125C82.7542 48.2625 84.7417 50.275 88.9292 51.2375L91.875 51.9292C94.7417 52.6084 95.9042 53.5542 95.9042 55.1875C95.9042 57.0792 94 58.4334 91.2583 58.4334C88.4875 58.4334 86.3958 57.0625 86.1417 54.9667H82.2042Z" fill="white"/>
</svg>
