<svg width="100" height="100" viewBox="0 0 100 100" fill="none" xmlns="http://www.w3.org/2000/svg">
<path d="M61.6653 69.4016C54.8929 66.7609 47.7502 65.4623 40.2367 65.5066C31.3674 65.5593 22.8315 68.1024 15.5876 72.846C14.1456 73.7888 12.6034 71.9891 13.6954 70.8143C14.3122 70.1491 14.8651 69.469 15.3542 68.7742C19.7333 62.5468 22.3239 55.5244 23.126 47.7068C24.4848 34.4459 20.2057 21.8043 13.6481 10.2823C13.3786 9.80951 13.6397 8.91936 14.1233 8.60419C14.629 8.27444 15.145 8.24568 15.671 8.5185C25.9278 13.8557 35.0852 20.4542 43.1431 28.3145C54.3076 39.2034 62.5489 52.583 64.48 68.1384C64.595 69.0581 64.2337 69.6163 63.3964 69.8135C62.8573 69.9408 62.221 69.6173 61.6653 69.4016ZM71.9016 87.9839C73.6245 89.2695 75.2251 89.1452 76.8616 87.9536C78.7047 86.61 80.6034 85.2298 82.5577 83.8124C84.2387 82.5933 86.2422 82.1621 88.2817 82.7122C89.0801 82.9297 90.0045 83.4254 91.0547 84.1995C92.886 85.5532 94.7282 86.8921 96.5813 88.2161C97.1797 88.6419 97.8215 88.8593 98.507 88.8687C99.3832 88.8815 99.8777 89.32 99.9908 90.1843C100.013 90.3414 99.9942 90.5016 99.9351 90.6489C99.6832 91.2939 99.2099 91.6174 98.5152 91.6192C97.2705 91.6248 96.1357 91.2727 95.1115 90.5633C93.1279 89.1868 91.1713 87.772 89.243 86.3198C87.7065 85.167 86.0172 84.769 84.3887 85.9411C82.347 87.4086 80.3075 88.8792 78.2704 90.353C76.5401 91.6046 74.6618 91.9592 72.6352 91.4175C71.7776 91.187 70.8309 90.6847 69.7956 89.9108C67.8933 88.4899 66.0935 87.1851 64.3966 85.9965C62.9296 84.9663 61.4485 84.9727 59.9538 86.0157C58.3144 87.1603 56.5945 88.407 54.7939 89.7559C53.6232 90.6332 52.6117 91.187 51.7595 91.4175C49.746 91.9646 47.8621 91.6108 46.108 90.3557C44.2292 89.012 42.3609 87.6538 40.5033 86.2812C38.5779 84.8602 37.083 84.9266 35.1879 86.2977C33.2943 87.6688 31.402 89.0417 29.5112 90.4166C27.8571 91.6182 26.0008 91.9491 23.943 91.4091C23.0872 91.1843 22.1424 90.6839 21.1086 89.908C19.3211 88.5663 17.4067 87.1832 15.3653 85.7587C14.2067 84.9486 12.4643 85.1448 11.3669 85.9411C9.24377 87.481 7.11256 89.0097 4.97334 90.5273C3.91006 91.281 2.66905 91.6403 1.24992 91.6054C0.677653 91.5925 0.274725 91.2385 0.041327 90.5438C0.00422581 90.4345 -0.00811314 90.3184 0.00519426 90.2038C0.0923034 89.3488 0.567302 88.9017 1.43058 88.863C2.23644 88.828 2.91632 88.6096 3.47003 88.208C5.50169 86.735 7.53567 85.2652 9.57196 83.7986C9.62196 83.7617 9.63212 83.7157 9.60243 83.6605C8.70161 82.0651 7.7921 80.4747 6.87392 78.8891C6.28486 77.8773 6.80459 76.7604 8.01318 76.6831C35.897 74.946 63.7804 73.2016 91.6633 71.4501C92.0259 71.4263 92.3896 71.4244 92.7524 71.4446C93.6027 71.4916 94.1084 72.448 93.8723 73.2166C93.7945 73.4729 93.5629 73.7733 93.1776 74.1178C86.9647 79.6771 79.6428 84.0724 71.9239 87.749C71.7886 87.8153 71.7813 87.8938 71.9016 87.9839ZM10.414 79.3811C10.4093 79.3826 10.405 79.385 10.4015 79.3883C10.3979 79.3915 10.395 79.3955 10.3932 79.4C10.3913 79.4045 10.3905 79.4093 10.3907 79.4141C10.3909 79.4189 10.3922 79.4237 10.3944 79.428L12.1393 82.4608C12.1632 82.502 12.1992 82.5349 12.2424 82.5551C12.2856 82.5753 12.334 82.5819 12.3811 82.5739C14.1298 82.2811 15.7014 82.6155 17.0963 83.5775C18.9432 84.8493 20.8965 86.2581 22.9565 87.8042C24.5041 88.9654 26.127 89.3744 27.7719 88.2161C29.3815 87.0827 31.2914 85.7015 33.5014 84.0724C35.4963 82.6017 37.4803 82.0764 39.8756 82.7898C40.5627 82.9942 41.5101 83.547 42.7179 84.4482C44.3508 85.6632 45.9977 86.8593 47.6584 88.0364C49.4478 89.3053 50.9927 89.1174 52.7154 87.8236C54.6403 86.3755 56.5931 84.9644 58.5728 83.5913C61.0458 81.8746 64.0493 82.223 66.4362 84.0087C67.2825 84.6436 68.1384 85.2656 69.0036 85.8747C69.0854 85.9339 69.1958 85.9452 69.2907 85.903C76.1606 82.7806 82.4604 79.044 88.1899 74.6927C88.4326 74.5083 88.402 74.4265 88.0983 74.4467C62.248 76.0665 36.5846 77.6729 11.1085 79.2651C10.8736 79.2804 10.6409 79.3193 10.414 79.3811ZM69.5204 66.4797C66.2835 53.8989 60.6788 41.8296 52.6099 31.9828C49.1404 27.7496 45.3873 24.2396 41.351 21.4531C40.3367 20.7538 40.9035 19.0372 42.1428 19.0427C42.4595 19.0427 42.8041 19.1264 43.1765 19.2941C61.4097 27.4768 74.5526 43.0957 82.0938 61.3518C82.9297 63.3756 83.6668 65.4384 84.3028 67.5329C84.7 68.835 83.4801 70.0154 82.2604 69.244C79.1206 67.262 74.9387 67.1155 71.0126 67.6075C70.279 67.6988 69.6927 67.1544 69.5204 66.4797ZM72.0712 64.7299C74.8776 64.4534 77.8313 64.6359 80.5571 65.4349C80.5707 65.4385 80.5851 65.4384 80.5987 65.4346C80.6122 65.4308 80.6245 65.4233 80.6342 65.4131C80.6439 65.4029 80.6506 65.3902 80.6536 65.3765C80.6566 65.3628 80.6559 65.3485 80.6514 65.3352C75.2137 50.6535 65.9278 37.3126 53.171 28.1845C52.9396 28.0203 52.9173 28.0454 53.1044 28.2591C62.1683 38.6201 68.3452 51.2922 71.8989 64.611C71.9229 64.6994 71.9804 64.7391 72.0712 64.7299ZM23.8401 26.8603C27.8051 40.475 26.8049 54.9826 19.6694 67.2649C19.6645 67.2727 19.6624 67.2819 19.6634 67.291C19.6644 67.3001 19.6683 67.3087 19.6747 67.3153C19.6811 67.3219 19.6895 67.3263 19.6986 67.3276C19.7077 67.329 19.717 67.3273 19.7251 67.3228C26.2473 64.3133 33.1309 62.7864 40.3756 62.7423C47.5334 62.698 54.5058 63.8775 61.2931 66.2807C61.3068 66.2857 61.3216 66.287 61.3359 66.2846C61.3503 66.2821 61.3638 66.2759 61.375 66.2667C61.3863 66.2574 61.3949 66.2454 61.4 66.2318C61.4051 66.2182 61.4066 66.2035 61.4042 66.1892C58.6812 49.1276 47.3054 34.7692 34.2154 24.0544C29.3658 20.083 24.1653 16.4882 18.6135 13.2706C18.4338 13.1655 18.3922 13.2059 18.4885 13.3923C20.6596 17.5776 22.4434 22.067 23.8401 26.8603Z" fill="white"/>
</svg>
