<svg width="100" height="100" viewBox="0 0 100 100" fill="none" xmlns="http://www.w3.org/2000/svg">
<g clip-path="url(#clip0_1902_39)">
<path d="M37.4334 10.8167V83.9292L53.7459 89.1833V27.8667C53.7459 24.9917 55.0125 23.0708 57.0542 23.7375C59.7042 24.4875 60.2209 27.1292 60.2209 30.0083V54.4875C70.3917 59.4583 78.3959 54.4792 78.3959 41.3542C78.3959 27.8667 73.7042 21.875 59.9042 17.075C54.4584 15.2083 44.3709 12.1333 37.4459 10.8167H37.4334ZM56.8334 78.4875L83.0667 69.0083C86.0459 67.9333 86.5084 66.4042 84.0917 65.6C81.65 64.8 77.2709 65.0208 74.2709 66.1125L56.75 72.3625V62.4167L57.75 62.0625C57.75 62.0625 62.7542 60.3125 69.8875 59.5C76.9542 58.75 85.6583 59.625 92.5417 62.2542C100.242 64.7583 101.042 68.3875 99.1084 70.8875C97.1709 73.3875 92.35 75.2042 92.35 75.2042L56.75 88.15V78.5833L56.8334 78.4875ZM7.52919 77.5C-0.387478 75.2292 -1.69581 70.55 1.89586 67.8333C5.23336 65.3917 10.8959 63.45 10.8959 63.45L34.2917 55.0625V64.7L17.5209 70.8333C14.5834 71.9625 14.0834 73.4667 16.525 74.275C18.9667 75.0875 23.3459 74.9 26.2875 73.775L34.3625 70.8333V79.475C33.8625 79.6 33.2959 79.6583 32.7375 79.7792C24.6584 81.1583 16.0875 80.5958 7.57919 77.7833L7.52919 77.5Z" fill="#0070D1"/>
</g>
<defs>
<clipPath id="clip0_1902_39">
<rect width="100" height="100" fill="white"/>
</clipPath>
</defs>
</svg>
