<svg width="100" height="100" viewBox="0 0 100 100" fill="none" xmlns="http://www.w3.org/2000/svg">
<g clip-path="url(#clip0_1902_37)">
<path d="M49.9125 0C23.6583 0 2.12917 20.25 0.0916748 45.9875L26.8917 57.0625C29.1625 55.5167 31.9042 54.6042 34.8583 54.6042C35.1208 54.6042 35.3792 54.6208 35.6417 54.6292L47.5625 37.3708V37.125C47.5625 26.7292 56.0125 18.275 66.4125 18.275C76.8042 18.275 85.2625 26.7375 85.2625 37.1375C85.2625 47.5375 76.8042 55.9917 66.4125 55.9917H65.975L48.9917 68.1208C48.9917 68.3375 49.0083 68.5583 49.0083 68.7833C49.0083 76.5958 42.6958 82.9333 34.8833 82.9333C28.0708 82.9333 22.3167 78.0458 21.0042 71.5708L1.81667 63.625C7.75834 84.6125 27.025 100 49.9125 100C77.525 100 99.9083 77.6125 99.9083 50C99.9083 22.3875 77.5208 0 49.9125 0ZM31.4167 75.875L25.2792 73.3333C26.3708 75.5958 28.2542 77.4958 30.7542 78.5417C36.1583 80.7875 42.3917 78.225 44.6375 72.8125C45.7333 70.1875 45.7375 67.3167 44.6583 64.6917C43.5792 62.0667 41.5333 60.0208 38.9208 58.9292C36.3208 57.8458 33.5458 57.8917 31.0958 58.8042L37.4417 61.4292C41.425 63.0958 43.3125 67.6792 41.6458 71.6583C39.9917 75.6458 35.4042 77.5333 31.4167 75.875ZM78.9792 37.1125C78.9792 30.1875 73.3417 24.55 66.4167 24.55C59.4792 24.55 53.8542 30.1875 53.8542 37.1125C53.8542 44.05 59.4792 49.675 66.4167 49.675C73.3458 49.675 78.9792 44.05 78.9792 37.1125ZM57.0083 37.0917C57.0083 31.875 61.2292 27.65 66.4458 27.65C71.65 27.65 75.8875 31.875 75.8875 37.0917C75.8875 42.3042 71.65 46.5292 66.4458 46.5292C61.225 46.5292 57.0083 42.3042 57.0083 37.0917Z" fill="white"/>
</g>
<defs>
<clipPath id="clip0_1902_37">
<rect width="100" height="100" fill="white"/>
</clipPath>
</defs>
</svg>
