<svg width="95" height="100" viewBox="0 0 95 100" fill="none" xmlns="http://www.w3.org/2000/svg">
<path d="M81.4228 72.448H74.2383L61.0173 36.4254H67.4814L75.4773 59.8598C75.7742 60.764 76.5579 63.3826 77.7969 67.7352L78.9725 63.8328L80.2788 59.8951L88.5676 36.3941H95L81.4228 72.448ZM60.2692 72.1896C58.2708 72.7343 56.2066 73.0068 54.1337 72.9999C49.2649 72.9999 46.8503 70.2873 46.8503 64.8309V40.7859H42.6425V36.4254H47.0799V30.7459L52.9224 28.3895V36.4607H59.6794V40.8172H52.962V63.5392C52.962 65.2849 53.2549 66.4749 53.8091 67.1873C54.3633 67.8996 55.3766 68.2206 56.7779 68.2206C57.5973 68.2206 58.7373 68.0601 60.2732 67.7705L60.2692 72.1896ZM31.4126 51.276C31.4799 58.1806 37.5481 60.5057 37.6154 60.537C37.5481 60.7014 36.6337 63.8328 34.417 67.0268C32.4893 69.8059 30.4982 72.5771 27.3315 72.6437C24.2321 72.7063 23.2544 70.8353 19.6919 70.8353C16.1689 70.8353 15.0606 72.5771 12.1195 72.7063C9.11903 72.8042 6.79942 69.6728 4.84398 66.8976C0.893517 61.2181 -2.14256 50.8572 1.93853 43.882C3.9573 40.3984 7.58318 38.2025 11.502 38.1673C14.4708 38.1046 17.3129 40.1713 19.1416 40.1713C20.9665 40.1713 24.3944 37.7171 27.9847 38.0733C29.4888 38.1359 33.7322 38.6879 36.4398 42.5903C36.2102 42.7195 31.3809 45.4986 31.4126 51.276ZM25.6017 34.2961C27.2009 32.3586 28.3132 29.6773 28.0163 27C25.7007 27.0979 22.8942 28.5187 21.196 30.4563C19.6919 32.1668 18.3856 34.9106 18.7458 37.5253C21.3267 37.721 24.0025 36.2023 25.6017 34.2961Z" fill="white"/>
</svg>
