<svg width="48" height="48" viewBox="0 0 48 48" fill="none" xmlns="http://www.w3.org/2000/svg">
<g clip-path="url(#clip0_40_702)">
<path d="M32.38 4H15.62C8.34 4 4 8.34 4 15.62V32.36C4 39.66 8.34 44 15.62 44H32.36C39.64 44 43.98 39.66 43.98 32.38V15.62C44 8.34 39.66 4 32.38 4ZM38.7 17.68C38.62 17.86 38.52 18.02 38.38 18.16L34.78 21.76C34.48 22.06 34.1 22.2 33.72 22.2C33.34 22.2 32.96 22.06 32.66 21.76C32.08 21.18 32.08 20.22 32.66 19.64L33.7 18.6H33.4C29.2 18.6 25.76 22.02 25.76 26.22V30.14V34.48C25.76 35.3 25.08 35.98 24.26 35.98C23.44 35.98 22.76 35.3 22.76 34.48V30.14V26.22C22.76 22.02 19.34 18.6 15.14 18.6H14.3L15.34 19.64C15.92 20.22 15.92 21.18 15.34 21.76C15.04 22.06 14.66 22.2 14.28 22.2C13.9 22.2 13.52 22.06 13.22 21.76L9.62 18.16C9.04 17.58 9.04 16.62 9.62 16.04L13.22 12.44C13.8 11.86 14.76 11.86 15.34 12.44C15.92 13.02 15.92 13.98 15.34 14.56L14.3 15.6H15.16C19.06 15.6 22.44 17.74 24.28 20.88C26.12 17.74 29.5 15.6 33.42 15.6H33.72L32.68 14.56C32.1 13.98 32.1 13.02 32.68 12.44C33.26 11.86 34.22 11.86 34.8 12.44L38.4 16.04C38.54 16.18 38.64 16.34 38.72 16.52C38.86 16.9 38.86 17.32 38.7 17.68Z" fill="#FF1FA5"/>
</g>
<defs>
<clipPath id="clip0_40_702">
<rect width="48" height="48" fill="white"/>
</clipPath>
</defs>
</svg>
