<svg width="9" height="16" viewBox="0 0 9 16" fill="none" xmlns="http://www.w3.org/2000/svg">
<path d="M8.69388 8.73896L1.77481 15.6939C1.57984 15.8899 1.31539 16 1.03966 16C0.763925 16 0.499483 15.8899 0.304509 15.6939C0.109535 15.4979 2.05439e-09 15.2321 0 14.9549C-2.05439e-09 14.6778 0.109535 14.412 0.304509 14.216L6.48929 8.00087L0.306239 1.78402C0.209698 1.68697 0.133117 1.57177 0.080869 1.44498C0.0286212 1.31818 0.00172948 1.18229 0.00172948 1.04505C0.00172948 0.907814 0.0286212 0.771919 0.080869 0.645128C0.133117 0.518336 0.209698 0.403131 0.306239 0.306089C0.402781 0.209047 0.517392 0.132069 0.643529 0.07955C0.769667 0.0270312 0.90486 -1.0225e-09 1.04139 0C1.17792 1.0225e-09 1.31311 0.0270312 1.43925 0.07955C1.56539 0.132069 1.68 0.209047 1.77654 0.306089L8.69561 7.26104C8.79225 7.35807 8.86889 7.47333 8.92112 7.6002C8.97335 7.72707 9.00016 7.86306 9 8.00036C8.99984 8.13767 8.97271 8.27359 8.92018 8.40034C8.86765 8.52708 8.79075 8.64216 8.69388 8.73896Z" fill="white"/>
</svg>
