<svg width="48" height="48" viewBox="0 0 48 48" fill="none" xmlns="http://www.w3.org/2000/svg">
<path d="M24 23.06C18.48 23.06 14 27.54 14 33.06C14 34.54 14.32 35.94 14.92 37.18C15.08 37.54 15.26 37.88 15.46 38.2C17.18 41.1 20.36 43.06 24 43.06C27.64 43.06 30.82 41.1 32.54 38.2C32.74 37.88 32.92 37.54 33.08 37.18C33.68 35.94 34 34.54 34 33.06C34 27.54 29.52 23.06 24 23.06ZM28.14 32.2L23.88 36.14C23.6 36.4 23.22 36.54 22.86 36.54C22.48 36.54 22.1 36.4 21.8 36.1L19.82 34.12C19.24 33.54 19.24 32.58 19.82 32C20.4 31.42 21.36 31.42 21.94 32L22.9 32.96L26.1 30C26.72 29.44 27.66 29.48 28.22 30.08C28.78 30.68 28.74 31.62 28.14 32.2Z" fill="#FF1FA5"/>
<path d="M40.3997 34.14C39.6797 34.78 38.8997 35.32 38.0597 35.76C37.3397 36.12 36.6197 35.42 36.7397 34.62C36.8197 34.04 36.8597 33.44 36.8597 32.82C36.8597 25.66 31.0197 19.82 23.8597 19.82C16.6997 19.82 10.8597 25.66 10.8597 32.82C10.8597 33.74 10.9597 34.62 11.1397 35.48C11.2797 36.18 10.7397 36.88 10.0397 36.7C2.13965 34.78 2.09965 22.62 10.9397 22H11.0397C4.61965 4.14 31.6997 -3 34.7997 15.76C43.4597 16.86 46.9597 28.4 40.3997 34.14Z" fill="#FF1FA5"/>
</svg>
