<svg width="48" height="48" viewBox="0 0 48 48" fill="none" xmlns="http://www.w3.org/2000/svg">
<path d="M38.4004 29.56C36.6804 31.14 34.4004 32.02 32.0604 32H12.7404C4.60043 31.42 4.58043 19.6 12.7404 19.02H12.8204C7.24043 3.5 30.8204 -2.68 33.5204 13.6C41.0604 14.56 44.1204 24.58 38.4004 29.56Z" fill="#FF1FA5"/>
<path d="M37.5 42C37.5 42.82 36.82 43.5 36 43.5H28C27.9 43.5 27.82 43.5 27.72 43.46C27.14 44.94 25.68 46 24 46C22.32 46 20.86 44.94 20.28 43.46C20.18 43.5 20.1 43.5 20 43.5H12C11.18 43.5 10.5 42.82 10.5 42C10.5 41.18 11.18 40.5 12 40.5H20C20.1 40.5 20.18 40.5 20.28 40.54C20.68 39.5 21.5 38.68 22.54 38.28C22.5 38.18 22.5 38.1 22.5 38V32H25.5V38C25.5 38.1 25.5 38.18 25.46 38.28C26.5 38.68 27.32 39.5 27.72 40.54C27.82 40.5 27.9 40.5 28 40.5H36C36.82 40.5 37.5 41.18 37.5 42Z" fill="#FF1FA5"/>
</svg>
