<svg width="48" height="48" viewBox="0 0 48 48" fill="none" xmlns="http://www.w3.org/2000/svg">
<path d="M38.64 4H9.36C6.42 4 4 6.42 4 9.36V14.62C4 17.58 6.42 20 9.36 20H38.62C41.58 20 44 17.58 44 14.64V9.36C44 6.42 41.58 4 38.64 4ZM13.5 14C13.5 14.82 12.82 15.5 12 15.5C11.18 15.5 10.5 14.82 10.5 14V10C10.5 9.18 11.18 8.5 12 8.5C12.82 8.5 13.5 9.18 13.5 10V14ZM21.5 14C21.5 14.82 20.82 15.5 20 15.5C19.18 15.5 18.5 14.82 18.5 14V10C18.5 9.18 19.18 8.5 20 8.5C20.82 8.5 21.5 9.18 21.5 10V14ZM36 13.5H28C27.18 13.5 26.5 12.82 26.5 12C26.5 11.18 27.18 10.5 28 10.5H36C36.82 10.5 37.5 11.18 37.5 12C37.5 12.82 36.82 13.5 36 13.5Z" fill="#FF1FA5"/>
<path d="M38.64 28H9.36C6.42 28 4 30.42 4 33.36V38.62C4 41.58 6.42 44 9.36 44H38.62C41.58 44 43.98 41.58 43.98 38.64V33.38C44 30.42 41.58 28 38.64 28ZM13.5 38C13.5 38.82 12.82 39.5 12 39.5C11.18 39.5 10.5 38.82 10.5 38V34C10.5 33.18 11.18 32.5 12 32.5C12.82 32.5 13.5 33.18 13.5 34V38ZM21.5 38C21.5 38.82 20.82 39.5 20 39.5C19.18 39.5 18.5 38.82 18.5 38V34C18.5 33.18 19.18 32.5 20 32.5C20.82 32.5 21.5 33.18 21.5 34V38ZM36 37.5H28C27.18 37.5 26.5 36.82 26.5 36C26.5 35.18 27.18 34.5 28 34.5H36C36.82 34.5 37.5 35.18 37.5 36C37.5 36.82 36.82 37.5 36 37.5Z" fill="#FF1FA5"/>
</svg>
