<svg width="135" height="36" viewBox="0 0 135 36" fill="none" xmlns="http://www.w3.org/2000/svg"><g clip-path="url(#clip0_3_1385)"><path d="M14.9702 8.619C15.8281 9.07319 16.3328 10.032 16.1813 10.9404C16.0804 11.546 15.6767 12.1516 14.8693 12.5049C14.7179 12.6058 14.6169 12.8581 14.7179 13.06C14.8188 13.2618 15.0207 13.3123 15.2226 13.2114C16.2823 12.7572 16.7869 11.9497 16.9383 11.0918C17.1402 9.83018 16.4842 8.46759 15.2731 7.91247C15.0712 7.81155 14.8693 7.91247 14.7683 8.11434C14.6674 8.3162 14.7683 8.51807 14.9702 8.619ZM8.61152 2.05845C13.5066 -1.27229 21.3794 -0.616234 25.3157 4.43034C26.981 6.60036 27.9399 9.57785 27.6371 13.4637C27.3847 16.845 26.5269 19.671 24.6092 21.74C22.6914 23.8092 19.714 25.0708 15.2731 25.3736H15.172C15.1215 25.3231 15.0712 25.3231 15.0207 25.3736C13.8095 25.525 10.9329 24.7681 9.41897 22.6989C9.26757 22.5476 9.01524 22.4971 8.86385 22.6484C8.71245 22.7494 8.66198 23.0017 8.81339 23.2036C10.2769 25.1717 12.9011 26.0801 14.4655 26.1811L14.6169 26.4839C15.0712 27.4931 15.6767 28.4015 16.0804 29.3604C16.5851 30.5716 16.7869 31.7323 15.8281 33.1959C14.6169 35.0126 11.6899 35.9209 8.76291 35.9209C5.88636 35.9714 3.00982 35.1135 1.84911 33.1453C-0.119052 29.8145 -0.0685867 26.0801 0.335139 22.4466C0.789331 18.6112 1.59678 14.9272 1.14259 12.0507C0.890262 10.1834 0.284673 8.06387 0.0828105 6.09571C-0.119052 4.27894 -0.0181209 2.56311 1.14259 1.30146C1.54632 0.796806 2.40423 0.342615 3.31262 0.140752C4.77612 -0.162041 6.4415 0.0902863 7.55174 1.80613L7.65267 1.95751C7.65267 2.00798 7.65267 2.05845 7.70313 2.10892C8.20779 2.76498 8.66198 4.22848 8.66198 4.68267C8.66198 4.88454 8.81339 5.08639 9.06571 5.08639C9.26757 5.08639 9.41897 4.88454 9.41897 4.68267C9.41897 4.22848 9.06571 2.91637 8.61152 2.05845Z" fill="white"/><path d="M34.5915 0.998672C36.7111 1.04914 39.4362 1.80613 40.6474 3.82475C41.4548 5.13687 41.5053 6.95364 40.4456 9.42645C39.9913 10.3348 39.1334 11.0414 38.1242 11.4955C36.5093 12.303 34.4401 12.6058 32.9766 12.303C29.0908 11.4955 27.8291 6.60037 29.6459 3.52196C30.5038 2.05846 32.5729 0.998672 34.5915 0.998672ZM39.3858 12.1011C39.9409 12.4039 40.4456 12.8581 40.6978 13.4133C41.8586 15.7347 41.9091 18.1066 41.8081 20.6803C41.6567 23.5065 41.3035 26.4839 41.7072 29.6632C42.2118 33.3472 39.6381 35.4163 36.7111 35.8705C33.7336 36.3247 30.3524 35.1135 29.343 32.0856C28.7375 30.1678 28.8889 28.9062 29.1413 27.6446C29.2926 26.5847 29.4945 25.5755 29.444 24.2633C29.343 21.5382 28.9394 19.4186 28.9898 17.5515C28.9898 15.9366 29.343 14.5739 30.6047 13.2114C30.7562 13.06 30.9075 12.9086 31.1094 12.7572C31.6141 13.0095 32.1187 13.2114 32.7243 13.3628C34.642 13.7665 37.4176 13.3123 39.3858 12.1011Z" fill="white"/><path d="M60.3007 10.8395C61.0577 11.4955 61.5623 12.2525 61.6128 13.1104C61.7137 14.0188 61.3099 14.9777 60.3512 15.9366C60.1996 16.088 60.1996 16.3402 60.3512 16.4917C60.5025 16.6431 60.7548 16.6431 60.9063 16.4917C62.0669 15.3309 62.4707 14.1702 62.4202 13.06C62.3697 12.0002 61.7642 10.9909 60.8053 10.2339C60.6539 10.0825 60.4015 10.133 60.2502 10.2844C60.0988 10.4358 60.1493 10.6881 60.3007 10.8395ZM55.1027 3.67335C58.3325 1.50333 61.108 1.04914 63.4296 1.50333C66.9116 2.26031 69.2835 4.98546 70.4443 6.80223C73.9264 12.3535 72.9675 19.2673 69.4854 23.4559C67.2649 26.1811 63.9846 27.7455 60.1493 26.938L59.8464 26.8876C59.796 26.8371 59.695 26.7866 59.6446 26.7363C57.3231 26.1811 55.9606 25.1717 54.2952 24.0111C54.1438 23.9101 53.8916 23.9606 53.74 24.112C53.6392 24.3138 53.6897 24.5662 53.841 24.6671C55.4559 25.7774 56.869 26.7866 58.9885 27.3923L59.2914 28.0483C60.0988 29.7642 60.1493 31.2277 59.6446 32.3378C58.938 34.1546 56.9698 35.2144 54.7494 35.6686C52.428 36.1733 49.8037 35.9714 47.8356 35.0126C46.5739 34.4575 45.5647 33.5491 45.1104 32.3883C43.3946 27.9979 44.0003 25.1213 44.5049 22.1943C44.9085 20.0243 45.2114 17.8542 44.8077 15.0786C44.5049 12.9086 43.7984 10.6376 43.4955 8.51806C43.2936 6.5499 43.3946 4.73313 44.7068 3.1687C45.2114 2.56311 46.3721 2.00798 47.7347 1.70519C49.501 1.251 51.671 1.35193 53.3364 2.81544C53.3868 2.91637 53.4373 2.96683 53.4878 3.01729C54.4971 3.82474 55.0522 5.08639 55.1532 6.29757C55.2036 6.5499 55.3549 6.70129 55.6073 6.65083C55.8092 6.65083 55.9606 6.44896 55.9606 6.24711C55.8597 5.38919 55.6073 4.4808 55.1027 3.67335Z" fill="white"/><path d="M89.3752 7.30689C89.4257 7.0041 89.5266 6.60036 89.678 6.19665C89.9808 5.13687 90.5863 3.87522 91.7471 3.06777C92.5545 2.56311 93.6143 2.31078 95.0274 2.46217C97.6516 2.76498 99.317 3.57243 100.276 4.83406C101.184 6.04524 101.437 7.60968 101.386 9.27506C101.336 11.7479 100.629 14.372 100.124 16.5926C99.973 17.1982 100.024 18.0561 100.124 19.0149C100.326 20.327 100.629 21.8914 100.831 23.6073C101.285 27.5436 100.881 32.0856 95.1283 34.5584C85.1361 38.7974 75.9514 32.5397 74.5384 26.0296C72.9235 18.4599 73.6803 12.7572 74.1851 9.88064C74.942 5.79291 76.355 3.62289 78.1214 2.56311C79.8877 1.5538 81.8558 1.70519 83.6726 2.05845C86.3473 2.61358 87.0538 4.88454 87.6594 7.96294L88.1136 10.2339C87.6089 14.0693 87.3566 18.9645 88.1641 23.2036C87.6089 23.2541 87.1043 23.4054 86.7005 23.6073C86.1959 23.8597 85.7921 24.1625 85.5903 24.4147C85.4894 24.6166 85.5398 24.869 85.6913 24.9698C85.893 25.1214 86.1454 25.0708 86.2463 24.869C86.3978 24.7176 86.65 24.4652 87.0538 24.3138C87.4576 24.112 87.9622 23.9606 88.5678 23.9606C88.6182 23.9606 88.6182 23.9606 88.6687 23.9606C89.3752 23.9606 90.1322 24.213 90.8892 24.8185C91.0406 24.9698 91.2929 24.9195 91.4444 24.768C91.5957 24.5662 91.5452 24.3643 91.3939 24.213C90.5863 23.5568 89.7285 23.2541 88.9714 23.1531C87.9117 17.8542 88.6182 11.3441 89.3752 7.50875C89.3752 7.40781 89.3752 7.35735 89.3752 7.30689Z" fill="white"/><path d="M118.375 29.7642L118.022 30.8239C117.366 32.893 116.356 34.1546 115.196 34.9116C113.429 36.0724 111.36 35.9714 109.897 35.9209C104.446 35.6181 102.831 31.2781 102.63 27.8464C102.428 24.0111 103.084 22.0429 103.74 20.3775C104.194 19.1159 104.598 18.0056 104.699 16.5421C104.951 13.4637 104.194 10.3348 104.043 7.60968C103.942 5.28826 104.295 3.37057 106.667 2.31079C110.098 0.847275 113.026 2.76498 113.833 4.73314L114.287 5.79292L115.145 4.935C116.306 3.72382 118.526 2.56312 120.999 2.05846C124.683 1.30147 129.023 2.00798 131.597 6.44896C132.707 8.36667 132.656 10.4358 132.454 12.7067C132.101 16.5421 131.345 21.084 133.868 26.938C134.877 29.2595 134.625 31.4294 133.514 32.994C132.404 34.6089 130.436 35.6686 128.115 35.8705C125.491 36.0724 122.765 35.9714 121.05 34.1546C120.343 33.3977 119.838 32.3378 119.536 30.8744L119.233 29.209C120.04 24.4652 120.343 16.6935 119.536 13.1609C120.797 12.6563 122.109 12.8077 123.321 13.4637C123.522 13.5647 123.775 13.4637 123.876 13.2618C123.977 13.06 123.876 12.8581 123.674 12.7572C121.251 11.4955 118.526 11.8488 116.609 14.5739C116.508 14.7758 116.508 15.0282 116.709 15.1291C116.911 15.2804 117.164 15.2301 117.265 15.0282C117.719 14.3721 118.274 13.8674 118.829 13.5142C119.586 17.2486 119.233 25.3736 118.375 29.7642Z" fill="white"/></g><defs><clipPath id="clip0_3_1385"><rect width="134.63" height="35.998" fill="white"/></clipPath></defs></svg>
