<svg width="48" height="48" viewBox="0 0 48 48" fill="none" xmlns="http://www.w3.org/2000/svg">
<path d="M36 10.5H12C11.18 10.5 10.5 9.82 10.5 9C10.5 8.18 11.18 7.5 12 7.5H36C36.82 7.5 37.5 8.18 37.5 9C37.5 9.82 36.82 10.5 36 10.5Z" fill="#FF1FA5"/>
<path d="M30 5.5H18C17.18 5.5 16.5 4.82 16.5 4C16.5 3.18 17.18 2.5 18 2.5H30C30.82 2.5 31.5 3.18 31.5 4C31.5 4.82 30.82 5.5 30 5.5Z" fill="#FF1FA5"/>
<path d="M27.8201 32.4199C27.1401 32.4199 26.5801 32.9799 26.5801 33.6599C26.5801 34.3399 27.1401 34.8999 27.8201 34.8999C28.5001 34.8999 29.0601 34.3399 29.0601 33.6599C29.0601 32.9799 28.5001 32.4199 27.8201 32.4199Z" fill="#FF1FA5"/>
<path d="M19.0191 35.4798C19.0191 34.7998 18.4591 34.2598 17.7791 34.2598C17.0991 34.2598 16.5391 34.8198 16.5391 35.4998C16.5391 36.1798 17.0991 36.7398 17.7791 36.7398C18.4591 36.7198 19.0191 36.1598 19.0191 35.4798Z" fill="#FF1FA5"/>
<path d="M36 14H12C7.6 14 4 17.6 4 22V36C4 40.4 7.6 44 12 44H36C40.4 44 44 40.4 44 36V22C44 17.6 40.4 14 36 14ZM32.06 24.92V33.66C32.06 33.7 32.04 33.72 32.04 33.76C31.98 36.04 30.12 37.9 27.82 37.9C25.48 37.9 23.58 36 23.58 33.66C23.58 31.32 25.48 29.42 27.82 29.42C28.26 29.42 28.66 29.5 29.06 29.62V26.88L22.02 28.8V35.46V35.48C22.02 37.82 20.12 39.72 17.78 39.72C15.44 39.72 13.54 37.82 13.54 35.48C13.54 33.14 15.44 31.24 17.78 31.24C18.22 31.24 18.62 31.32 19.02 31.44V27.64V24.44C19.02 22.66 20.12 21.22 21.82 20.78L27.28 19.28C29.04 18.82 30.12 19.28 30.74 19.76C31.34 20.22 32.06 21.16 32.06 22.94V24.92Z" fill="#FF1FA5"/>
</svg>
