<svg width="48" height="48" viewBox="0 0 48 48" fill="none" xmlns="http://www.w3.org/2000/svg">
<path d="M34.9005 34.6001C31.5405 34.6001 28.4405 33.0201 26.4205 30.2401C25.9405 29.5801 26.0805 28.6401 26.7405 28.1401C27.4005 27.6401 28.3405 27.8001 28.8405 28.4601C30.3005 30.4401 32.5005 31.5801 34.9005 31.5801C39.0805 31.5801 42.5005 28.1801 42.5005 23.9801C42.5005 19.7801 39.1005 16.3801 34.9005 16.3801C32.0605 16.3801 29.3805 17.9001 27.9205 20.3201L22.6205 29.1401C20.6205 32.4801 16.9605 34.5401 13.0805 34.5401C7.24047 34.5401 2.48047 29.7801 2.48047 23.9401C2.48047 18.1001 7.24047 13.3401 13.0805 13.3401C16.4405 13.3401 19.5405 14.9201 21.5605 17.7001C22.0405 18.3601 21.9005 19.3001 21.2405 19.8001C20.5605 20.3001 19.6405 20.1401 19.1405 19.4801C17.7005 17.5401 15.5005 16.4001 13.1005 16.4001C8.92047 16.4001 5.50047 19.8001 5.50047 24.0001C5.50047 28.2001 8.90047 31.6001 13.1005 31.6001C15.9405 31.6001 18.6205 30.0801 20.0805 27.6601L25.3805 18.8401C27.3805 15.5001 31.0405 13.4401 34.9205 13.4401C40.7605 13.4401 45.5205 18.2001 45.5205 24.0401C45.5205 29.8801 40.7405 34.6001 34.9005 34.6001Z" fill="#FF1FA5"/>
<path d="M13 28C15.2091 28 17 26.2091 17 24C17 21.7909 15.2091 20 13 20C10.7909 20 9 21.7909 9 24C9 26.2091 10.7909 28 13 28Z" fill="#FF1FA5"/>
<path d="M35 28C37.2091 28 39 26.2091 39 24C39 21.7909 37.2091 20 35 20C32.7909 20 31 21.7909 31 24C31 26.2091 32.7909 28 35 28Z" fill="#FF1FA5"/>
</svg>
