<svg width="48" height="48" viewBox="0 0 48 48" fill="none" xmlns="http://www.w3.org/2000/svg">
<rect width="48" height="48" rx="24" fill="#FF1FA5"/>
<path d="M15.92 35.5C15.92 33.9 16.1653 32.46 16.656 31.18C17.168 29.8787 18.0533 28.6413 19.312 27.468C20.592 26.2947 22.3627 25.1107 24.624 23.916C25.6693 23.3613 26.512 22.8493 27.152 22.38C27.792 21.9107 28.2613 21.4093 28.56 20.876C28.8587 20.3427 29.008 19.692 29.008 18.924C29.008 18.1347 28.8373 17.452 28.496 16.876C28.1547 16.2787 27.6427 15.8093 26.96 15.468C26.2987 15.1267 25.4667 14.956 24.464 14.956C22.864 14.956 21.5947 15.372 20.656 16.204C19.7387 17.036 19.1627 18.22 18.928 19.756L16.048 19.564C16.304 17.3453 17.1573 15.5747 18.608 14.252C20.0587 12.9293 22.0107 12.268 24.464 12.268C26.0213 12.268 27.3547 12.5453 28.464 13.1C29.5733 13.6547 30.416 14.4333 30.992 15.436C31.5893 16.4173 31.888 17.5587 31.888 18.86C31.888 20.012 31.696 21.0147 31.312 21.868C30.928 22.7 30.2773 23.4787 29.36 24.204C28.464 24.9293 27.2267 25.708 25.648 26.54C23.6 27.628 22.0427 28.7267 20.976 29.836C19.9307 30.9453 19.376 31.9373 19.312 32.812H31.888V35.5H15.92Z" fill="white"/>
</svg>
