<svg width="48" height="48" viewBox="0 0 48 48" fill="none" xmlns="http://www.w3.org/2000/svg">
<rect width="48" height="48" rx="24" fill="#FF1FA5"/>
<path d="M23.632 36.012C21.1147 36.012 19.1733 35.4253 17.808 34.252C16.4427 33.0573 15.7067 31.5213 15.6 29.644L18.448 29.452C18.576 30.8387 19.1093 31.8307 20.048 32.428C21.008 33.0253 22.2027 33.324 23.632 33.324C24.6133 33.324 25.52 33.196 26.352 32.94C27.184 32.6627 27.856 32.2253 28.368 31.628C28.88 31.0093 29.136 30.188 29.136 29.164C29.136 27.6493 28.6347 26.54 27.632 25.836C26.6293 25.132 25.3067 24.78 23.664 24.78H21.872V22.092H23.664C25.008 22.092 26.1173 21.8253 26.992 21.292C27.888 20.7587 28.336 19.8413 28.336 18.54C28.336 17.3667 27.952 16.4813 27.184 15.884C26.4373 15.2653 25.3067 14.956 23.792 14.956C22.2987 14.956 21.168 15.244 20.4 15.82C19.6533 16.396 19.2053 17.1853 19.056 18.188L16.176 17.996C16.3893 16.2893 17.1467 14.9133 18.448 13.868C19.7493 12.8013 21.5307 12.268 23.792 12.268C25.328 12.268 26.6507 12.524 27.76 13.036C28.8693 13.5267 29.7227 14.2307 30.32 15.148C30.9173 16.0653 31.216 17.1533 31.216 18.412C31.216 19.82 30.768 20.9613 29.872 21.836C28.9973 22.6893 27.696 23.276 25.968 23.596V23.02C27.824 23.2333 29.296 23.8947 30.384 25.004C31.472 26.1133 32.016 27.5 32.016 29.164C32.016 30.6147 31.6533 31.852 30.928 32.876C30.224 33.9 29.2427 34.6787 27.984 35.212C26.7253 35.7453 25.2747 36.012 23.632 36.012Z" fill="white"/>
</svg>
