<svg width="80" height="80" viewBox="0 0 80 80" fill="none" xmlns="http://www.w3.org/2000/svg"><g clip-path="url(#clip0_2_265)"><path d="M40 80C62.0914 80 80 62.0914 80 40C80 17.9086 62.0914 0 40 0C17.9086 0 0 17.9086 0 40C0 62.0914 17.9086 80 40 80Z" fill="#F0F0F0"/><path d="M79.6614 34.7827H31.3045L31.3044 0.950806C27.6078 1.77049 24.1033 3.09909 20.8695 4.86362V34.7824L0.338594 34.7825C0.115938 36.4905 0 38.2317 0 40C0 41.7683 0.115938 43.5096 0.338594 45.2174H20.8694L20.8695 75.1363C24.1033 76.9007 27.6078 78.2296 31.3044 79.0491V45.2178L79.6614 45.2175C79.8838 43.5096 80 41.7683 80 40C80 38.2317 79.8838 36.4905 79.6614 34.7827Z" fill="#0052B4"/></g><defs><clipPath id="clip0_2_265"><rect width="80" height="80" fill="white"/></clipPath></defs></svg>
