<svg width="80" height="80" viewBox="0 0 80 80" fill="none" xmlns="http://www.w3.org/2000/svg"><g clip-path="url(#clip0_2_365)"><path d="M40 80C62.0914 80 80 62.0914 80 40C80 17.9086 62.0914 0 40 0C17.9086 0 0 17.9086 0 40C0 62.0914 17.9086 80 40 80Z" fill="#F0F0F0"/><path d="M40 0C24.1416 0 10.4391 9.22891 3.96906 22.6087H76.0308C69.5609 9.22891 55.8583 0 40 0V0Z" fill="#FF9811"/><path d="M40 80C55.8583 80 69.5609 70.7711 76.0309 57.3912H3.96906C10.4391 70.7711 24.1416 80 40 80Z" fill="#6DA544"/><path d="M40 53.913C47.6839 53.913 53.913 47.6839 53.913 40C53.913 32.3161 47.6839 26.087 40 26.087C32.3161 26.087 26.087 32.3161 26.087 40C26.087 47.6839 32.3161 53.913 40 53.913Z" fill="#0052B4"/><path d="M40 48.6956C44.8025 48.6956 48.6956 44.8025 48.6956 40C48.6956 35.1975 44.8025 31.3044 40 31.3044C35.1975 31.3044 31.3044 35.1975 31.3044 40C31.3044 44.8025 35.1975 48.6956 40 48.6956Z" fill="#F0F0F0"/><path d="M40 29.2697L42.6827 35.3538L49.2926 34.6349L45.3652 40L49.2926 45.3652L42.6827 44.6463L40 50.7303L37.3173 44.6463L30.7073 45.365L34.6348 40L30.7073 34.6349L37.3173 35.3538L40 29.2697Z" fill="#0052B4"/></g></svg>
