<svg width="80" height="80" viewBox="0 0 80 80" fill="none" xmlns="http://www.w3.org/2000/svg">
<g clip-path="url(#clip0_2_306)">
<path d="M40 80C62.0914 80 80 62.0914 80 40C80 17.9086 62.0914 0 40 0C17.9086 0 0 17.9086 0 40C0 62.0914 17.9086 80 40 80Z" fill="#00ABC2"/>
<path d="M39.9522 45.6199C45.7576 45.6199 50.4639 40.9136 50.4639 35.1082C50.4639 29.3027 45.7576 24.5964 39.9522 24.5964C34.1467 24.5964 29.4404 29.3027 29.4404 35.1082C29.4404 40.9136 34.1467 45.6199 39.9522 45.6199Z" fill="#FFEC2D"/>
<path d="M39.9522 23.1628C40.5772 23.155 40.8115 22.7644 40.8115 22.2957C40.8115 21.6707 39.9522 18.6941 39.9522 18.6941C39.9522 18.6941 39.0928 21.6707 39.0928 22.2957C39.0928 22.7644 39.3272 23.1628 39.9522 23.1628Z" fill="#FFEC2D"/>
<path d="M51.8975 35.1082C51.9053 35.7332 52.2959 35.9675 52.7647 35.9675C53.3897 35.9675 56.3662 35.1082 56.3662 35.1082C56.3662 35.1082 53.3897 34.2488 52.7647 34.2488C52.2959 34.2488 51.8975 34.4832 51.8975 35.1082Z" fill="#FFEC2D"/>
<path d="M39.9522 47.0535C39.3272 47.0613 39.0928 47.4519 39.0928 47.9207C39.0928 48.5457 39.9522 51.5222 39.9522 51.5222C39.9522 51.5222 40.8115 48.5457 40.8115 47.9207C40.8115 47.4519 40.5772 47.0535 39.9522 47.0535Z" fill="#FFEC2D"/>
<path d="M28.0069 35.1082C27.999 34.4832 27.6084 34.2488 27.1397 34.2488C26.5147 34.2488 23.5381 35.1082 23.5381 35.1082C23.5381 35.1082 26.5147 35.9675 27.1397 35.9675C27.6084 35.9675 28.0069 35.7332 28.0069 35.1082Z" fill="#FFEC2D"/>
<path d="M44.5234 24.0721C45.1039 24.3041 45.4699 24.0329 45.6493 23.5998C45.8884 23.0224 46.2336 19.9435 46.2336 19.9435C46.2336 19.9435 44.3005 22.3647 44.0613 22.9421C43.882 23.3751 43.946 23.8329 44.5234 24.0721Z" fill="#FFEC2D"/>
<path d="M50.9882 39.6794C50.7562 40.2598 51.0274 40.6259 51.4605 40.8052C52.0379 41.0444 55.1168 41.3895 55.1168 41.3895C55.1168 41.3895 52.6957 39.4565 52.1182 39.2173C51.6852 39.0379 51.2274 39.102 50.9882 39.6794Z" fill="#FFEC2D"/>
<path d="M35.3809 46.1442C34.8005 45.9122 34.4345 46.1834 34.2551 46.6165C34.0159 47.1939 33.6708 50.2728 33.6708 50.2728C33.6708 50.2728 35.6038 47.8517 35.843 47.2742C36.0224 46.8412 35.9583 46.3834 35.3809 46.1442Z" fill="#FFEC2D"/>
<path d="M28.9161 30.5369C29.1481 29.9565 28.8769 29.5904 28.4438 29.4111C27.8664 29.1719 24.7876 28.8268 24.7876 28.8268C24.7876 28.8268 27.2087 30.7598 27.7861 30.999C28.2192 31.1784 28.677 31.1143 28.9161 30.5369Z" fill="#FFEC2D"/>
<path d="M48.3988 26.6615C48.8462 27.098 49.2882 26.9875 49.6196 26.656C50.0616 26.2141 51.5587 23.5017 51.5587 23.5017C51.5587 23.5017 48.8462 24.9987 48.4043 25.4407C48.0728 25.7721 47.9568 26.2196 48.3988 26.6615Z" fill="#FFEC2D"/>
<path d="M48.3988 43.5548C47.9624 44.0022 48.0728 44.4442 48.4043 44.7756C48.8462 45.2176 51.5587 46.7146 51.5587 46.7146C51.5587 46.7146 50.0616 44.0022 49.6196 43.5603C49.2882 43.2288 48.8407 43.1128 48.3988 43.5548Z" fill="#FFEC2D"/>
<path d="M31.5056 43.5548C31.0581 43.1184 30.6161 43.2288 30.2847 43.5603C29.8427 44.0022 28.3457 46.7147 28.3457 46.7147C28.3457 46.7147 31.0581 45.2176 31.5 44.7756C31.8315 44.4442 31.9475 43.9967 31.5056 43.5548Z" fill="#FFEC2D"/>
<path d="M31.5056 26.6615C31.942 26.2141 31.8315 25.7721 31.5 25.4407C31.0581 24.9987 28.3457 23.5017 28.3457 23.5017C28.3457 23.5017 29.8428 26.2141 30.2847 26.656C30.6161 26.9875 31.0636 27.1035 31.5056 26.6615Z" fill="#FFEC2D"/>
<path d="M50.9882 30.5369C51.2346 31.1113 51.6852 31.1784 52.1182 30.999C52.6957 30.7598 55.1168 28.8268 55.1168 28.8268C55.1168 28.8268 52.0379 29.1719 51.4605 29.4111C51.0274 29.5904 50.749 29.9595 50.9882 30.5369Z" fill="#FFEC2D"/>
<path d="M44.5234 46.1442C43.949 46.3906 43.882 46.8412 44.0613 47.2742C44.3005 47.8517 46.2336 50.2728 46.2336 50.2728C46.2336 50.2728 45.8884 47.1939 45.6493 46.6165C45.4699 46.1834 45.1009 45.905 44.5234 46.1442Z" fill="#FFEC2D"/>
<path d="M28.9161 39.6794C28.6697 39.105 28.2192 39.0379 27.7861 39.2173C27.2087 39.4565 24.7875 41.3895 24.7875 41.3895C24.7875 41.3895 27.8664 41.0444 28.4438 40.8052C28.8769 40.6259 29.1553 40.2569 28.9161 39.6794Z" fill="#FFEC2D"/>
<path d="M35.3809 24.0721C35.9553 23.8257 36.0224 23.3751 35.843 22.9421C35.6038 22.3647 33.6708 19.9435 33.6708 19.9435C33.6708 19.9435 34.0159 23.0224 34.2551 23.5998C34.4345 24.0329 34.8035 24.3113 35.3809 24.0721Z" fill="#FFEC2D"/>
<path d="M42.2826 23.3924C42.8971 23.5066 43.2032 23.1692 43.2946 22.7095C43.4165 22.0965 43.1544 19.0095 43.1544 19.0095C43.1544 19.0095 41.7308 21.7612 41.6089 22.3742C41.5174 22.8339 41.6696 23.2704 42.2826 23.3924Z" fill="#FFEC2D"/>
<path d="M51.6679 37.4386C51.5537 38.0531 51.8911 38.3592 52.3508 38.4506C52.9638 38.5725 56.0508 38.3104 56.0508 38.3104C56.0508 38.3104 53.2991 36.8868 52.6861 36.7649C52.2264 36.6734 51.7899 36.8256 51.6679 37.4386Z" fill="#FFEC2D"/>
<path d="M37.6217 46.8239C37.0072 46.7097 36.7011 47.0471 36.6097 47.5068C36.4878 48.1198 36.7499 51.2068 36.7499 51.2068C36.7499 51.2068 38.1735 48.4551 38.2954 47.8421C38.3869 47.3824 38.2347 46.9459 37.6217 46.8239Z" fill="#FFEC2D"/>
<path d="M28.2364 32.7777C28.3506 32.1632 28.0132 31.8571 27.5535 31.7657C26.9405 31.6438 23.8535 31.9059 23.8535 31.9059C23.8535 31.9059 26.6052 33.3295 27.2182 33.4514C27.6779 33.5429 28.1144 33.3907 28.2364 32.7777Z" fill="#FFEC2D"/>
<path d="M46.5886 25.176C47.1126 25.5167 47.5245 25.3221 47.7849 24.9324C48.1322 24.4127 49.0713 21.4604 49.0713 21.4604C49.0713 21.4604 46.7031 23.4578 46.3559 23.9775C46.0954 24.3673 46.0689 24.8288 46.5886 25.176Z" fill="#FFEC2D"/>
<path d="M49.8843 41.7446C49.5436 42.2686 49.7382 42.6805 50.1279 42.9409C50.6476 43.2882 53.5999 44.2273 53.5999 44.2273C53.5999 44.2273 51.6025 41.8591 51.0828 41.5119C50.693 41.2514 50.2315 41.2249 49.8843 41.7446Z" fill="#FFEC2D"/>
<path d="M33.3157 45.0403C32.7917 44.6996 32.3798 44.8942 32.1194 45.2839C31.7721 45.8036 30.833 48.756 30.833 48.756C30.833 48.756 33.2012 46.7585 33.5485 46.2388C33.8089 45.8491 33.8354 45.3876 33.3157 45.0403Z" fill="#FFEC2D"/>
<path d="M30.02 28.4717C30.3607 27.9477 30.1661 27.5358 29.7764 27.2754C29.2567 26.9281 26.3044 25.989 26.3044 25.989C26.3044 25.989 28.3018 28.3572 28.8215 28.7045C29.2113 28.9649 29.6728 28.9914 30.02 28.4717Z" fill="#FFEC2D"/>
<path d="M49.8848 28.4714C50.2386 28.9867 50.6936 28.9645 51.0833 28.7041C51.603 28.3569 53.6005 25.9887 53.6005 25.9887C53.6005 25.9887 50.6481 26.9278 50.1284 27.275C49.7387 27.5355 49.5376 27.9517 49.8848 28.4714Z" fill="#FFEC2D"/>
<path d="M46.5891 45.04C46.0738 45.3937 46.096 45.8487 46.3564 46.2385C46.7036 46.7581 49.0718 48.7556 49.0718 48.7556C49.0718 48.7556 48.1327 45.8032 47.7855 45.2836C47.525 44.8938 47.1088 44.6928 46.5891 45.04Z" fill="#FFEC2D"/>
<path d="M30.0205 41.7443C29.6668 41.2289 29.2118 41.2511 28.822 41.5115C28.3024 41.8587 26.3049 44.227 26.3049 44.227C26.3049 44.227 29.2572 43.2878 29.7769 42.9406C30.1667 42.6802 30.3677 42.2639 30.0205 41.7443Z" fill="#FFEC2D"/>
<path d="M33.3162 25.1757C33.8315 24.8219 33.8094 24.3669 33.549 23.9772C33.2017 23.4575 30.8335 21.46 30.8335 21.46C30.8335 21.46 31.7727 24.4124 32.1199 24.9321C32.3803 25.3218 32.7965 25.5229 33.3162 25.1757Z" fill="#FFEC2D"/>
<path d="M51.6679 32.7777C51.7975 33.3892 52.2264 33.5429 52.6861 33.4514C53.2991 33.3295 56.0508 31.9059 56.0508 31.9059C56.0508 31.9059 52.9638 31.6438 52.3508 31.7657C51.8911 31.8571 51.546 32.1647 51.6679 32.7777Z" fill="#FFEC2D"/>
<path d="M42.2826 46.8239C41.6711 46.9535 41.5174 47.3824 41.6089 47.8421C41.7308 48.4551 43.1544 51.2068 43.1544 51.2068C43.1544 51.2068 43.4165 48.1198 43.2946 47.5068C43.2032 47.0471 42.8956 46.702 42.2826 46.8239Z" fill="#FFEC2D"/>
<path d="M28.2364 37.4386C28.1068 36.8271 27.6779 36.6734 27.2182 36.7649C26.6052 36.8868 23.8535 38.3104 23.8535 38.3104C23.8535 38.3104 26.9405 38.5725 27.5535 38.4506C28.0132 38.3592 28.3583 38.0516 28.2364 37.4386Z" fill="#FFEC2D"/>
<path d="M37.6217 23.3924C38.2332 23.2628 38.3869 22.8339 38.2954 22.3742C38.1735 21.7612 36.7499 19.0095 36.7499 19.0095C36.7499 19.0095 36.4878 22.0965 36.6097 22.7095C36.7011 23.1692 37.0087 23.5143 37.6217 23.3924Z" fill="#FFEC2D"/>
<path d="M38.0768 57.879C37.7956 57.8946 37.5221 57.931 37.2538 58.017C36.8867 58.0665 36.5351 58.1941 36.1706 58.254L36.0247 58.2775L35.7799 58.3009C35.7956 58.3686 35.806 58.4363 35.806 58.504C35.806 58.5743 35.7981 58.642 35.7799 58.6993C35.7643 58.754 35.7148 58.8217 35.6757 58.8634C35.6237 58.9207 35.569 58.9701 35.5039 59.0014C35.4414 59.0326 35.371 59.0457 35.3007 59.0509C35.2304 59.0535 35.1575 59.0509 35.0898 59.0248C35.0195 59.0014 34.9544 58.9571 34.8945 58.905C34.8225 58.9229 34.7494 58.9359 34.6757 58.9441C34.6028 58.9519 34.5351 58.9519 34.47 58.9441C34.3971 58.9232 34.3216 58.8998 34.2513 58.8712C34.1805 58.8419 34.1125 58.8061 34.0481 58.7644C33.7825 58.9207 33.4856 59.0691 33.3242 59.3425C33.2331 59.4675 33.2148 59.6107 33.194 59.7592C33.181 59.9415 33.2278 60.1342 33.306 60.3035C33.3346 60.3529 33.3581 60.1238 33.4466 60.0925C33.595 59.9701 33.7799 59.8816 33.9674 59.8321C34.1263 59.7514 34.1054 59.8373 34.0403 59.9623C34.0247 60.0275 33.9362 60.2748 34.056 60.1498C34.5846 59.9154 35.1706 59.8686 35.7409 59.8243C36.569 59.7384 37.3997 59.7201 38.2304 59.7097L40.5742 59.7592C40.9466 59.7696 41.3216 59.8529 41.6888 59.7904C41.7773 59.767 41.9153 59.7618 41.9674 59.7097C41.8007 59.6134 41.6054 59.6107 41.4206 59.5873H39.931C39.5169 59.5457 39.0846 59.5404 38.694 59.3842C38.5898 59.3425 38.4935 59.2436 38.3945 59.3503C38.246 59.4025 38.0872 59.4389 37.931 59.4493C37.6575 59.4701 37.3841 59.4128 37.1315 59.3113C37.3138 59.0587 37.5325 58.8373 37.7331 58.6029C37.5716 58.5769 37.4153 58.5431 37.2538 58.504C37.5378 58.3087 37.8007 58.0873 38.0768 57.879Z" fill="#FFEC2D"/>
<path d="M50.2433 60.5777C49.6773 60.9175 49.2453 60.315 48.7722 60.1343C48.4343 60.3179 48.4027 60.9318 48.087 61.2226C47.7093 61.6525 47.2464 61.1025 47.2808 60.6785C46.8291 61.0593 46.6007 61.9224 45.8701 61.8071C45.5241 61.5246 45.2669 60.932 45.0025 61.6068C44.7869 61.9366 44.2126 62.406 43.9153 61.9079C43.8233 61.468 43.6028 60.9508 43.3635 61.6494C43.1993 62.1436 42.6721 62.5071 42.162 62.2907C41.8828 62.0625 42.3858 61.2183 42.0305 61.2784C41.4992 61.6296 41.1904 62.5017 40.4491 62.4318C40.1612 62.1087 40.6237 61.5612 40.308 61.2025C39.9353 61.6809 39.5218 62.3814 38.8771 62.4318C38.5655 62.1793 38.8894 61.4552 38.6904 61.348C38.0289 61.7447 37.3309 62.4518 36.499 62.2304C36.8232 60.9903 38.1779 60.5552 39.3172 60.4585C41.2772 60.2175 43.3394 60.6605 45.2253 59.953C45.53 59.7676 46.2683 59.5046 46.0054 59.0746C45.7726 58.735 46.6111 58.8679 46.6917 58.4712C46.6418 57.9689 47.0766 58.038 47.5014 57.994C49.4058 57.9118 51.2869 58.3129 53.1856 58.3811C53.329 59.3062 52.3028 59.9558 51.4765 59.6701C51.0819 59.7341 50.4901 58.7627 50.6061 59.4693C50.5266 59.8403 50.5822 60.33 50.2433 60.5777ZM34.0402 58.6835C34.4811 59.087 34.7902 58.6075 35.2023 58.4322C36.5845 57.9568 37.7905 57.1261 38.9794 56.296C39.6997 55.6999 40.3242 54.9268 41.2916 54.7335C43.1787 54.1629 45.1848 54.2322 47.0791 53.7056C48.5217 51.7306 50.9718 51.026 53.0242 49.8907C53.4851 49.7475 53.6631 49.3682 53.8103 48.9495C54.5937 47.7128 55.661 46.6169 56.9232 45.8683C57.5204 45.542 58.2329 45.3541 58.909 45.5033C58.8605 46.3086 58.3986 47.0222 57.8408 47.5791C58.2973 47.5691 58.6895 47.2807 59.1508 47.297C59.3088 48.1234 58.4164 48.5559 57.9416 49.0704C58.206 49.1319 59.2191 49.2086 58.667 49.4735C57.9635 49.9618 57.1601 50.297 56.5106 50.864C57.1098 50.9717 57.1781 51.099 56.5688 51.3157C56.239 51.5393 55.6047 51.6175 55.5434 52.053C55.996 52.3312 55.3348 52.6075 55.0798 52.6979C54.5922 52.8115 54.08 53.0233 54.7277 53.3938C54.4827 53.764 53.957 53.8429 53.528 53.8063C53.6582 54.2258 53.8466 54.6953 53.3021 54.8804C52.0815 55.803 50.649 56.4743 49.1146 56.6278C51.0314 56.7751 53.0057 56.4193 54.6437 55.3769C54.8599 55.1212 55.9938 54.8465 55.3596 54.6315C55.061 54.5072 54.4208 54.3692 54.3776 54.1415C55.2647 53.5942 56.3826 53.7889 57.3369 53.4637C57.3616 53.1547 56.611 53.2407 56.3312 53.1704C55.6637 53.1157 55.7029 52.9454 56.3464 52.8822C57.1606 52.6666 58.0828 52.6242 58.7677 52.0933C58.2101 51.835 57.5087 52.0624 56.9137 51.8515C57.9223 51.41 59.1123 51.3657 60.0173 50.7027C60.4295 50.2441 59.4891 50.3874 59.2151 50.3986C58.6565 50.4958 58.3983 50.2284 59.033 49.9963C60.1166 49.1973 61.4887 48.6783 62.2498 47.52C62.4301 47.2607 62.6743 46.4794 62.0992 46.7604C61.343 47.0119 60.6775 47.8621 59.8158 47.5991C61.5137 46.2832 63.1293 44.785 64.2898 42.964C64.3498 42.4387 63.5253 42.3819 63.3107 42.7943C62.2198 43.8454 61.2326 45.0861 59.8359 45.745C61.1735 44.454 62.2794 42.9254 63.2442 41.341C63.4511 40.8697 64.007 40.303 63.7053 39.7798C63.219 39.3772 62.6105 39.7457 62.3578 40.2275C61.5098 41.3345 60.8659 42.6266 59.7755 43.5282C60.7302 41.7063 61.7185 39.7668 61.7426 37.6653C61.7397 37.2326 61.6528 36.5954 61.0653 36.6762C60.5995 36.7597 60.7101 37.4568 60.5181 37.8094C60.0954 39.2451 59.8969 40.8 59.0298 42.0571C59.2249 40.8904 59.5662 39.6743 59.3042 38.4961C59.1818 37.9697 58.3316 38.1961 58.4411 38.7172C57.4253 43.8625 53.9728 48.3625 49.4575 50.9657C47.39 52.1354 45.0807 52.8896 42.7312 53.2315C42.0992 53.3698 41.4156 53.2886 40.8116 53.5041C39.3478 54.6265 38.4616 56.5047 36.6083 57.0928C35.7776 57.5056 34.6945 57.5893 34.1006 58.361C34.0492 58.4596 34.0382 58.574 34.0402 58.6835Z" fill="#FFEC2D"/>
<path d="M39.5872 53.4637C39.3137 53.9601 39.1528 54.5307 38.8012 54.9752C37.7433 54.0126 36.2097 54.0444 34.8679 53.9803C33.7603 53.9212 32.5558 53.819 31.6989 53.0291C30.7974 52.2906 30.0615 51.3319 29.0542 50.7327C28.1347 50.4827 27.2079 50.1699 26.4686 49.5397C24.889 48.252 23.9843 46.3415 22.4407 45.0137C22.1464 44.724 21.7993 44.4995 21.4697 44.2537C21.1564 44.3301 21.2982 45.0062 20.9148 44.6616C20.7062 44.5131 20.1845 44.4987 20.1375 44.706C20.6094 45.3279 21.0818 46.038 21.1472 46.8334C20.8254 46.8663 20.2531 46.7654 20.0936 46.8852C20.521 47.5259 21.0689 48.0941 21.6914 48.5464C21.3928 48.5944 20.8044 48.5683 20.69 48.6886C21.3079 49.1922 21.9704 49.7069 22.7796 49.8362C22.9452 50.0545 22.5374 50.4761 22.8804 50.6625C23.0792 50.7437 23.7354 50.8797 23.2834 51.1059C22.9733 51.3148 23.0883 51.8019 23.485 51.791C23.7358 51.9191 24.2988 51.9505 24.3429 52.1723C24.1206 52.3984 23.429 52.6666 24.0176 52.8785C24.5676 53.1835 25.1947 53.3816 25.8227 53.4033C25.5075 53.6684 25.1193 53.8189 24.7949 54.0684C26.2441 54.9181 27.8506 55.4769 29.4381 56.0152C30.0701 56.2263 30.7095 56.4232 31.3647 56.5472C29.4609 56.4373 27.6208 55.8737 25.8869 55.1023C24.9883 54.7081 24.0835 54.3273 23.1625 53.9878C23.5663 53.7777 24.0334 53.7263 24.4522 53.5444C23.5829 53.3702 22.6331 53.3132 21.8689 52.8353C21.9861 52.6262 22.43 52.6164 22.6756 52.51C23.1374 52.3994 23.4239 52.2652 22.7727 52.225C22.1161 52.0468 21.3629 52.1268 20.7843 51.7306C20.8215 51.4931 21.4272 51.5759 21.6738 51.4734C21.9844 51.42 22.3297 51.3753 22.5779 51.1663C21.5628 50.7455 20.235 51.0437 19.4398 50.1472C19.2565 49.8056 20.0093 50.0808 20.2236 50.0238C20.7684 50.0238 21.3539 50.197 21.8726 49.9773C20.3934 49.3279 18.809 48.7199 17.6808 47.5187C17.5556 47.3255 17.1803 46.798 17.4831 46.7327C18.3611 46.8489 18.9967 47.8072 19.9359 47.658C20.0607 47.4898 19.3903 47.2142 19.2229 46.9738C17.8536 45.7987 16.5245 44.5235 15.5647 42.9843C15.4987 42.4702 16.3067 42.3933 16.5194 42.7902C17.5667 43.7989 18.5127 44.9759 19.8171 45.6645C20.2799 45.889 19.5513 45.3989 19.4543 45.2212C18.249 43.8216 17.1017 42.3435 16.2593 40.6952C16.1086 40.3982 15.8587 39.8604 16.3098 39.7023C16.7608 39.4763 17.2083 39.7841 17.437 40.1716C18.3231 41.2891 18.9751 42.6174 20.079 43.5485C19.1386 41.7236 18.1345 39.8026 18.1102 37.7026C18.1323 37.2955 18.1585 36.6798 18.7105 36.6965C19.174 36.6262 19.1008 37.2196 19.2527 37.5026C19.7094 39.0453 19.9086 40.7152 20.8247 42.0773C20.6224 40.9328 20.3245 39.7542 20.5224 38.5908C20.568 38.2087 20.9981 38.0931 21.2788 38.3241C21.5058 38.8795 21.553 39.5655 21.7598 40.1593C22.9364 44.1843 25.5782 47.7243 29.0208 50.0999C31.8561 52.0445 35.221 53.2054 38.6552 53.4078C38.9654 53.4348 39.2765 53.4446 39.5872 53.4637Z" fill="#FFEC2D"/>
<path d="M35.228 58.7999C35.3301 58.7999 35.4129 58.7171 35.4129 58.6149C35.4129 58.5128 35.3301 58.43 35.228 58.43C35.1258 58.43 35.043 58.5128 35.043 58.6149C35.043 58.7171 35.1258 58.7999 35.228 58.7999Z" fill="#FFEC2D"/>
<path d="M35.2121 58.6607C35.2537 58.6607 35.2875 58.6269 35.2875 58.5853C35.2875 58.5437 35.2537 58.5099 35.2121 58.5099C35.1705 58.5099 35.1367 58.5437 35.1367 58.5853C35.1367 58.6269 35.1705 58.6607 35.2121 58.6607Z" fill="#FFEC2D"/>
<path d="M39.9522 45.6199C45.7576 45.6199 50.4639 40.9136 50.4639 35.1082C50.4639 29.3027 45.7576 24.5964 39.9522 24.5964C34.1467 24.5964 29.4404 29.3027 29.4404 35.1082C29.4404 40.9136 34.1467 45.6199 39.9522 45.6199Z" stroke="#FFEC2D" stroke-width="0.1905"/>
<path d="M39.9522 23.1628C40.5772 23.155 40.8115 22.7644 40.8115 22.2957C40.8115 21.6707 39.9522 18.6941 39.9522 18.6941C39.9522 18.6941 39.0928 21.6707 39.0928 22.2957C39.0928 22.7644 39.3272 23.1628 39.9522 23.1628Z" stroke="#FFEC2D" stroke-width="0.1905"/>
<path d="M51.8975 35.1082C51.9053 35.7332 52.2959 35.9675 52.7647 35.9675C53.3897 35.9675 56.3662 35.1082 56.3662 35.1082C56.3662 35.1082 53.3897 34.2488 52.7647 34.2488C52.2959 34.2488 51.8975 34.4832 51.8975 35.1082Z" stroke="#FFEC2D" stroke-width="0.1905"/>
<path d="M39.9522 47.0535C39.3272 47.0613 39.0928 47.4519 39.0928 47.9207C39.0928 48.5457 39.9522 51.5222 39.9522 51.5222C39.9522 51.5222 40.8115 48.5457 40.8115 47.9207C40.8115 47.4519 40.5772 47.0535 39.9522 47.0535Z" stroke="#FFEC2D" stroke-width="0.1905"/>
<path d="M28.0069 35.1082C27.999 34.4832 27.6084 34.2488 27.1397 34.2488C26.5147 34.2488 23.5381 35.1082 23.5381 35.1082C23.5381 35.1082 26.5147 35.9675 27.1397 35.9675C27.6084 35.9675 28.0069 35.7332 28.0069 35.1082Z" stroke="#FFEC2D" stroke-width="0.1905"/>
<path d="M44.5234 24.0721C45.1039 24.3041 45.4699 24.0329 45.6493 23.5998C45.8884 23.0224 46.2336 19.9435 46.2336 19.9435C46.2336 19.9435 44.3005 22.3647 44.0613 22.9421C43.882 23.3751 43.946 23.8329 44.5234 24.0721Z" stroke="#FFEC2D" stroke-width="0.1905"/>
<path d="M50.9882 39.6794C50.7562 40.2598 51.0274 40.6259 51.4605 40.8052C52.0379 41.0444 55.1168 41.3895 55.1168 41.3895C55.1168 41.3895 52.6957 39.4565 52.1182 39.2173C51.6852 39.0379 51.2274 39.102 50.9882 39.6794Z" stroke="#FFEC2D" stroke-width="0.1905"/>
<path d="M35.3809 46.1442C34.8005 45.9122 34.4345 46.1834 34.2551 46.6165C34.0159 47.1939 33.6708 50.2728 33.6708 50.2728C33.6708 50.2728 35.6038 47.8517 35.843 47.2742C36.0224 46.8412 35.9583 46.3834 35.3809 46.1442Z" stroke="#FFEC2D" stroke-width="0.1905"/>
<path d="M28.9161 30.5369C29.1481 29.9565 28.8769 29.5904 28.4438 29.4111C27.8664 29.1719 24.7876 28.8268 24.7876 28.8268C24.7876 28.8268 27.2087 30.7598 27.7861 30.999C28.2192 31.1784 28.677 31.1143 28.9161 30.5369Z" stroke="#FFEC2D" stroke-width="0.1905"/>
<path d="M48.3988 26.6615C48.8462 27.098 49.2882 26.9875 49.6196 26.656C50.0616 26.2141 51.5587 23.5017 51.5587 23.5017C51.5587 23.5017 48.8462 24.9987 48.4043 25.4407C48.0728 25.7721 47.9568 26.2196 48.3988 26.6615Z" stroke="#FFEC2D" stroke-width="0.1905"/>
<path d="M48.3988 43.5548C47.9624 44.0022 48.0728 44.4442 48.4043 44.7756C48.8462 45.2176 51.5587 46.7146 51.5587 46.7146C51.5587 46.7146 50.0616 44.0022 49.6196 43.5603C49.2882 43.2288 48.8407 43.1128 48.3988 43.5548Z" stroke="#FFEC2D" stroke-width="0.1905"/>
<path d="M31.5056 43.5548C31.0581 43.1184 30.6161 43.2288 30.2847 43.5603C29.8427 44.0022 28.3457 46.7147 28.3457 46.7147C28.3457 46.7147 31.0581 45.2176 31.5 44.7756C31.8315 44.4442 31.9475 43.9967 31.5056 43.5548Z" stroke="#FFEC2D" stroke-width="0.1905"/>
<path d="M31.5056 26.6615C31.942 26.2141 31.8315 25.7721 31.5 25.4407C31.0581 24.9987 28.3457 23.5017 28.3457 23.5017C28.3457 23.5017 29.8428 26.2141 30.2847 26.656C30.6161 26.9875 31.0636 27.1035 31.5056 26.6615Z" stroke="#FFEC2D" stroke-width="0.1905"/>
<path d="M50.9882 30.5369C51.2346 31.1113 51.6852 31.1784 52.1182 30.999C52.6957 30.7598 55.1168 28.8268 55.1168 28.8268C55.1168 28.8268 52.0379 29.1719 51.4605 29.4111C51.0274 29.5904 50.749 29.9595 50.9882 30.5369Z" stroke="#FFEC2D" stroke-width="0.1905"/>
<path d="M44.5234 46.1442C43.949 46.3906 43.882 46.8412 44.0613 47.2742C44.3005 47.8517 46.2336 50.2728 46.2336 50.2728C46.2336 50.2728 45.8884 47.1939 45.6493 46.6165C45.4699 46.1834 45.1009 45.905 44.5234 46.1442Z" stroke="#FFEC2D" stroke-width="0.1905"/>
<path d="M28.9161 39.6794C28.6697 39.105 28.2192 39.0379 27.7861 39.2173C27.2087 39.4565 24.7875 41.3895 24.7875 41.3895C24.7875 41.3895 27.8664 41.0444 28.4438 40.8052C28.8769 40.6259 29.1553 40.2569 28.9161 39.6794Z" stroke="#FFEC2D" stroke-width="0.1905"/>
<path d="M35.3809 24.0721C35.9553 23.8257 36.0224 23.3751 35.843 22.9421C35.6038 22.3647 33.6708 19.9435 33.6708 19.9435C33.6708 19.9435 34.0159 23.0224 34.2551 23.5998C34.4345 24.0329 34.8035 24.3113 35.3809 24.0721Z" stroke="#FFEC2D" stroke-width="0.1905"/>
<path d="M42.2826 23.3924C42.8971 23.5066 43.2032 23.1692 43.2946 22.7095C43.4165 22.0965 43.1544 19.0095 43.1544 19.0095C43.1544 19.0095 41.7308 21.7612 41.6089 22.3742C41.5174 22.8339 41.6696 23.2704 42.2826 23.3924Z" stroke="#FFEC2D" stroke-width="0.1905"/>
<path d="M51.6679 37.4386C51.5537 38.0531 51.8911 38.3592 52.3508 38.4506C52.9638 38.5725 56.0508 38.3104 56.0508 38.3104C56.0508 38.3104 53.2991 36.8868 52.6861 36.7649C52.2264 36.6734 51.7899 36.8256 51.6679 37.4386Z" stroke="#FFEC2D" stroke-width="0.1905"/>
<path d="M37.6217 46.8239C37.0072 46.7097 36.7011 47.0471 36.6097 47.5068C36.4878 48.1198 36.7499 51.2068 36.7499 51.2068C36.7499 51.2068 38.1735 48.4551 38.2954 47.8421C38.3869 47.3824 38.2347 46.9459 37.6217 46.8239Z" stroke="#FFEC2D" stroke-width="0.1905"/>
<path d="M28.2364 32.7777C28.3506 32.1632 28.0132 31.8571 27.5535 31.7657C26.9405 31.6438 23.8535 31.9059 23.8535 31.9059C23.8535 31.9059 26.6052 33.3295 27.2182 33.4514C27.6779 33.5429 28.1144 33.3907 28.2364 32.7777Z" stroke="#FFEC2D" stroke-width="0.1905"/>
<path d="M46.5886 25.176C47.1126 25.5167 47.5245 25.3221 47.7849 24.9324C48.1322 24.4127 49.0713 21.4604 49.0713 21.4604C49.0713 21.4604 46.7031 23.4578 46.3559 23.9775C46.0954 24.3673 46.0689 24.8288 46.5886 25.176Z" stroke="#FFEC2D" stroke-width="0.1905"/>
<path d="M49.8843 41.7446C49.5436 42.2686 49.7382 42.6805 50.1279 42.9409C50.6476 43.2882 53.5999 44.2273 53.5999 44.2273C53.5999 44.2273 51.6025 41.8591 51.0828 41.5119C50.693 41.2514 50.2315 41.2249 49.8843 41.7446Z" stroke="#FFEC2D" stroke-width="0.1905"/>
<path d="M33.3157 45.0403C32.7917 44.6996 32.3798 44.8942 32.1194 45.2839C31.7721 45.8036 30.833 48.756 30.833 48.756C30.833 48.756 33.2012 46.7585 33.5485 46.2388C33.8089 45.8491 33.8354 45.3876 33.3157 45.0403Z" stroke="#FFEC2D" stroke-width="0.1905"/>
<path d="M30.02 28.4717C30.3607 27.9477 30.1661 27.5358 29.7764 27.2754C29.2567 26.9281 26.3044 25.989 26.3044 25.989C26.3044 25.989 28.3018 28.3572 28.8215 28.7045C29.2113 28.9649 29.6728 28.9914 30.02 28.4717Z" stroke="#FFEC2D" stroke-width="0.1905"/>
<path d="M49.8848 28.4714C50.2386 28.9867 50.6936 28.9645 51.0833 28.7041C51.603 28.3569 53.6005 25.9887 53.6005 25.9887C53.6005 25.9887 50.6481 26.9278 50.1284 27.275C49.7387 27.5355 49.5376 27.9517 49.8848 28.4714Z" stroke="#FFEC2D" stroke-width="0.1905"/>
<path d="M46.5891 45.04C46.0738 45.3937 46.096 45.8487 46.3564 46.2385C46.7036 46.7581 49.0718 48.7556 49.0718 48.7556C49.0718 48.7556 48.1327 45.8032 47.7855 45.2836C47.525 44.8938 47.1088 44.6928 46.5891 45.04Z" stroke="#FFEC2D" stroke-width="0.1905"/>
<path d="M30.0205 41.7443C29.6668 41.2289 29.2118 41.2511 28.822 41.5115C28.3024 41.8587 26.3049 44.227 26.3049 44.227C26.3049 44.227 29.2572 43.2878 29.7769 42.9406C30.1667 42.6802 30.3677 42.2639 30.0205 41.7443Z" stroke="#FFEC2D" stroke-width="0.1905"/>
<path d="M33.3162 25.1757C33.8315 24.8219 33.8094 24.3669 33.549 23.9772C33.2017 23.4575 30.8335 21.46 30.8335 21.46C30.8335 21.46 31.7727 24.4124 32.1199 24.9321C32.3803 25.3218 32.7965 25.5229 33.3162 25.1757Z" stroke="#FFEC2D" stroke-width="0.1905"/>
<path d="M51.6679 32.7777C51.7975 33.3892 52.2264 33.5429 52.6861 33.4514C53.2991 33.3295 56.0508 31.9059 56.0508 31.9059C56.0508 31.9059 52.9638 31.6438 52.3508 31.7657C51.8911 31.8571 51.546 32.1647 51.6679 32.7777Z" stroke="#FFEC2D" stroke-width="0.1905"/>
<path d="M42.2826 46.8239C41.6711 46.9535 41.5174 47.3824 41.6089 47.8421C41.7308 48.4551 43.1544 51.2068 43.1544 51.2068C43.1544 51.2068 43.4165 48.1198 43.2946 47.5068C43.2032 47.0471 42.8956 46.702 42.2826 46.8239Z" stroke="#FFEC2D" stroke-width="0.1905"/>
<path d="M28.2364 37.4386C28.1068 36.8271 27.6779 36.6734 27.2182 36.7649C26.6052 36.8868 23.8535 38.3104 23.8535 38.3104C23.8535 38.3104 26.9405 38.5725 27.5535 38.4506C28.0132 38.3592 28.3583 38.0516 28.2364 37.4386Z" stroke="#FFEC2D" stroke-width="0.1905"/>
<path d="M37.6217 23.3924C38.2332 23.2628 38.3869 22.8339 38.2954 22.3742C38.1735 21.7612 36.7499 19.0095 36.7499 19.0095C36.7499 19.0095 36.4878 22.0965 36.6097 22.7095C36.7011 23.1692 37.0087 23.5143 37.6217 23.3924Z" stroke="#FFEC2D" stroke-width="0.1905"/>
<path d="M38.0768 57.879C37.7956 57.8946 37.5221 57.931 37.2538 58.017C36.8867 58.0665 36.5351 58.1941 36.1706 58.254L36.0247 58.2775L35.7799 58.3009C35.7956 58.3686 35.806 58.4363 35.806 58.504C35.806 58.5743 35.7981 58.642 35.7799 58.6993C35.7643 58.754 35.7148 58.8217 35.6757 58.8634C35.6237 58.9207 35.569 58.9701 35.5039 59.0014C35.4414 59.0326 35.371 59.0457 35.3007 59.0509C35.2304 59.0535 35.1575 59.0509 35.0898 59.0248C35.0195 59.0014 34.9544 58.9571 34.8945 58.905C34.8225 58.9229 34.7494 58.9359 34.6757 58.9441C34.6028 58.9519 34.5351 58.9519 34.47 58.9441C34.3971 58.9232 34.3216 58.8998 34.2513 58.8712C34.1805 58.8419 34.1125 58.8061 34.0481 58.7644C33.7825 58.9207 33.4856 59.0691 33.3242 59.3425C33.2331 59.4675 33.2148 59.6107 33.194 59.7592C33.181 59.9415 33.2278 60.1342 33.306 60.3035C33.3346 60.3529 33.3581 60.1238 33.4466 60.0925C33.595 59.9701 33.7799 59.8816 33.9674 59.8321C34.1263 59.7514 34.1054 59.8373 34.0403 59.9623C34.0247 60.0275 33.9362 60.2748 34.056 60.1498C34.5846 59.9154 35.1706 59.8686 35.7409 59.8243C36.569 59.7384 37.3997 59.7201 38.2304 59.7097L40.5742 59.7592C40.9466 59.7696 41.3216 59.8529 41.6888 59.7904C41.7773 59.767 41.9153 59.7618 41.9674 59.7097C41.8007 59.6134 41.6054 59.6107 41.4206 59.5873H39.931C39.5169 59.5457 39.0846 59.5404 38.694 59.3842C38.5898 59.3425 38.4935 59.2436 38.3945 59.3503C38.246 59.4025 38.0872 59.4389 37.931 59.4493C37.6575 59.4701 37.3841 59.4128 37.1315 59.3113C37.3138 59.0587 37.5325 58.8373 37.7331 58.6029C37.5716 58.5769 37.4153 58.5431 37.2538 58.504C37.5378 58.3087 37.8007 58.0873 38.0768 57.879Z" stroke="#FFEC2D" stroke-width="0.1905"/>
<path d="M50.2433 60.5777C49.6773 60.9175 49.2453 60.315 48.7722 60.1343C48.4343 60.3179 48.4027 60.9318 48.087 61.2226C47.7093 61.6525 47.2464 61.1025 47.2808 60.6785C46.8291 61.0593 46.6007 61.9224 45.8701 61.8071C45.5241 61.5246 45.2669 60.932 45.0025 61.6068C44.7869 61.9366 44.2126 62.406 43.9153 61.9079C43.8233 61.468 43.6028 60.9508 43.3635 61.6494C43.1993 62.1436 42.6721 62.5071 42.162 62.2907C41.8828 62.0625 42.3858 61.2183 42.0305 61.2784C41.4992 61.6296 41.1904 62.5017 40.4491 62.4318C40.1612 62.1087 40.6237 61.5612 40.308 61.2025C39.9353 61.6809 39.5218 62.3814 38.8771 62.4318C38.5655 62.1793 38.8894 61.4552 38.6904 61.348C38.0289 61.7447 37.3309 62.4518 36.499 62.2304C36.8232 60.9903 38.1779 60.5552 39.3172 60.4585C41.2772 60.2175 43.3394 60.6605 45.2253 59.953C45.53 59.7676 46.2683 59.5046 46.0054 59.0746C45.7726 58.735 46.6111 58.8679 46.6917 58.4712C46.6418 57.9689 47.0766 58.038 47.5014 57.994C49.4058 57.9118 51.2869 58.3129 53.1856 58.3811C53.329 59.3062 52.3028 59.9558 51.4765 59.6701C51.0819 59.7341 50.4901 58.7627 50.6061 59.4693C50.5266 59.8403 50.5822 60.33 50.2433 60.5777ZM34.0402 58.6835C34.4811 59.087 34.7902 58.6075 35.2023 58.4322C36.5845 57.9568 37.7905 57.1261 38.9794 56.296C39.6997 55.6999 40.3242 54.9268 41.2916 54.7335C43.1787 54.1629 45.1848 54.2322 47.0791 53.7056C48.5217 51.7306 50.9718 51.026 53.0242 49.8907C53.4851 49.7475 53.6631 49.3682 53.8103 48.9495C54.5937 47.7128 55.661 46.6169 56.9232 45.8683C57.5204 45.542 58.2329 45.3541 58.909 45.5033C58.8605 46.3086 58.3986 47.0222 57.8408 47.5791C58.2973 47.5691 58.6895 47.2807 59.1508 47.297C59.3088 48.1234 58.4164 48.5559 57.9416 49.0704C58.206 49.1319 59.2191 49.2086 58.667 49.4735C57.9635 49.9618 57.1601 50.297 56.5106 50.864C57.1098 50.9717 57.1781 51.099 56.5688 51.3157C56.239 51.5393 55.6047 51.6175 55.5434 52.053C55.996 52.3312 55.3348 52.6075 55.0798 52.6979C54.5922 52.8115 54.08 53.0233 54.7277 53.3938C54.4827 53.764 53.957 53.8429 53.528 53.8063C53.6582 54.2258 53.8466 54.6953 53.3021 54.8804C52.0815 55.803 50.649 56.4743 49.1146 56.6278C51.0314 56.7751 53.0057 56.4193 54.6437 55.3769C54.8599 55.1212 55.9938 54.8465 55.3596 54.6315C55.061 54.5072 54.4208 54.3692 54.3776 54.1415C55.2647 53.5942 56.3826 53.7889 57.3369 53.4637C57.3616 53.1547 56.611 53.2407 56.3312 53.1704C55.6637 53.1157 55.7029 52.9454 56.3464 52.8822C57.1606 52.6666 58.0828 52.6242 58.7677 52.0933C58.2101 51.835 57.5087 52.0624 56.9137 51.8515C57.9223 51.41 59.1123 51.3657 60.0173 50.7027C60.4295 50.2441 59.4891 50.3874 59.2151 50.3986C58.6565 50.4958 58.3983 50.2284 59.033 49.9963C60.1166 49.1973 61.4887 48.6783 62.2498 47.52C62.4301 47.2607 62.6743 46.4794 62.0992 46.7604C61.343 47.0119 60.6775 47.8621 59.8158 47.5991C61.5137 46.2832 63.1293 44.785 64.2898 42.964C64.3498 42.4387 63.5253 42.3819 63.3107 42.7943C62.2198 43.8454 61.2326 45.0861 59.8359 45.745C61.1735 44.454 62.2794 42.9254 63.2442 41.341C63.4511 40.8697 64.007 40.303 63.7053 39.7798C63.219 39.3772 62.6105 39.7457 62.3578 40.2275C61.5098 41.3345 60.8659 42.6266 59.7755 43.5282C60.7302 41.7063 61.7185 39.7668 61.7426 37.6653C61.7397 37.2326 61.6528 36.5954 61.0653 36.6762C60.5995 36.7597 60.7101 37.4568 60.5181 37.8094C60.0954 39.2451 59.8969 40.8 59.0298 42.0571C59.2249 40.8904 59.5662 39.6743 59.3042 38.4961C59.1818 37.9697 58.3316 38.1961 58.4411 38.7172C57.4253 43.8625 53.9728 48.3625 49.4575 50.9657C47.39 52.1354 45.0807 52.8896 42.7312 53.2315C42.0992 53.3698 41.4156 53.2886 40.8116 53.5041C39.3478 54.6265 38.4616 56.5047 36.6083 57.0928C35.7776 57.5056 34.6945 57.5893 34.1006 58.361C34.0492 58.4596 34.0382 58.574 34.0402 58.6835Z" stroke="#FFEC2D" stroke-width="0.1905"/>
<path d="M39.5872 53.4637C39.3137 53.9601 39.1528 54.5307 38.8012 54.9752C37.7433 54.0126 36.2097 54.0444 34.8679 53.9803C33.7603 53.9212 32.5558 53.819 31.6989 53.0291C30.7974 52.2906 30.0615 51.3319 29.0542 50.7327C28.1347 50.4827 27.2079 50.1699 26.4686 49.5397C24.889 48.252 23.9843 46.3415 22.4407 45.0137C22.1464 44.724 21.7993 44.4995 21.4697 44.2537C21.1564 44.3301 21.2982 45.0062 20.9148 44.6616C20.7062 44.5131 20.1845 44.4987 20.1375 44.706C20.6094 45.3279 21.0818 46.038 21.1472 46.8334C20.8254 46.8663 20.2531 46.7654 20.0936 46.8852C20.521 47.5259 21.0689 48.0941 21.6914 48.5464C21.3928 48.5944 20.8044 48.5683 20.69 48.6886C21.3079 49.1922 21.9704 49.7069 22.7796 49.8362C22.9452 50.0545 22.5374 50.4761 22.8804 50.6625C23.0792 50.7437 23.7354 50.8797 23.2834 51.1059C22.9733 51.3148 23.0883 51.8019 23.485 51.791C23.7358 51.9191 24.2988 51.9505 24.3429 52.1723C24.1206 52.3984 23.429 52.6666 24.0176 52.8785C24.5676 53.1835 25.1947 53.3816 25.8227 53.4033C25.5075 53.6684 25.1193 53.8189 24.7949 54.0684C26.2441 54.9181 27.8506 55.4769 29.4381 56.0152C30.0701 56.2263 30.7095 56.4232 31.3647 56.5472C29.4609 56.4373 27.6208 55.8737 25.8869 55.1023C24.9883 54.7081 24.0835 54.3273 23.1625 53.9878C23.5663 53.7777 24.0334 53.7263 24.4522 53.5444C23.5829 53.3702 22.6331 53.3132 21.8689 52.8353C21.9861 52.6262 22.43 52.6164 22.6756 52.51C23.1374 52.3994 23.4239 52.2652 22.7727 52.225C22.1161 52.0468 21.3629 52.1268 20.7843 51.7306C20.8215 51.4931 21.4272 51.5759 21.6738 51.4734C21.9844 51.42 22.3297 51.3753 22.5779 51.1663C21.5628 50.7455 20.235 51.0437 19.4398 50.1472C19.2565 49.8056 20.0093 50.0808 20.2236 50.0238C20.7684 50.0238 21.3539 50.197 21.8726 49.9773C20.3934 49.3279 18.809 48.7199 17.6808 47.5187C17.5556 47.3255 17.1803 46.798 17.4831 46.7327C18.3611 46.8489 18.9967 47.8072 19.9359 47.658C20.0607 47.4898 19.3903 47.2142 19.2229 46.9738C17.8536 45.7987 16.5245 44.5235 15.5647 42.9843C15.4987 42.4702 16.3067 42.3933 16.5194 42.7902C17.5667 43.7989 18.5127 44.9759 19.8171 45.6645C20.2799 45.889 19.5513 45.3989 19.4543 45.2212C18.249 43.8216 17.1017 42.3435 16.2593 40.6952C16.1086 40.3982 15.8587 39.8604 16.3098 39.7023C16.7608 39.4763 17.2083 39.7841 17.437 40.1716C18.3231 41.2891 18.9751 42.6174 20.079 43.5485C19.1386 41.7236 18.1345 39.8026 18.1102 37.7026C18.1323 37.2955 18.1585 36.6798 18.7105 36.6965C19.174 36.6262 19.1008 37.2196 19.2527 37.5026C19.7094 39.0453 19.9086 40.7152 20.8247 42.0773C20.6224 40.9328 20.3245 39.7542 20.5224 38.5908C20.568 38.2087 20.9981 38.0931 21.2788 38.3241C21.5058 38.8795 21.553 39.5655 21.7598 40.1593C22.9364 44.1843 25.5782 47.7243 29.0208 50.0999C31.8561 52.0445 35.221 53.2054 38.6552 53.4078C38.9654 53.4348 39.2765 53.4446 39.5872 53.4637Z" stroke="#FFEC2D" stroke-width="0.1905"/>
<path d="M35.228 58.7999C35.3301 58.7999 35.4129 58.7171 35.4129 58.6149C35.4129 58.5128 35.3301 58.43 35.228 58.43C35.1258 58.43 35.043 58.5128 35.043 58.6149C35.043 58.7171 35.1258 58.7999 35.228 58.7999Z" stroke="#FFEC2D" stroke-width="0.1905"/>
<path d="M35.2121 58.6607C35.2537 58.6607 35.2875 58.6269 35.2875 58.5853C35.2875 58.5437 35.2537 58.5099 35.2121 58.5099C35.1705 58.5099 35.1367 58.5437 35.1367 58.5853C35.1367 58.6269 35.1705 58.6607 35.2121 58.6607Z" stroke="#FFEC2D" stroke-width="0.1905"/>
</g>
<defs>
<clipPath id="clip0_2_306">
<rect width="80" height="80" fill="white"/>
</clipPath>
</defs>
</svg>
