<svg width="80" height="80" viewBox="0 0 80 80" fill="none" xmlns="http://www.w3.org/2000/svg"><g clip-path="url(#clip0_2_295)"><path d="M40 80C62.0914 80 80 62.0914 80 40C80 17.9086 62.0914 0 40 0C17.9086 0 0 17.9086 0 40C0 62.0914 17.9086 80 40 80Z" fill="#F0F0F0"/><path d="M40 0C21.5189 0 5.96793 12.5345 1.37793 29.5652H78.6221C74.032 12.5345 58.4811 0 40 0Z" fill="#A2001D"/><path d="M40 80C58.481 80 74.032 67.4654 78.622 50.4348H1.37793C5.96793 67.4653 21.5189 80 40 80Z" fill="#A2001D"/></g><defs><clipPath id="clip0_2_295"><rect width="80" height="80" fill="white"/></clipPath></defs></svg>
