<svg width="80" height="80" viewBox="0 0 80 80" fill="none" xmlns="http://www.w3.org/2000/svg"><g clip-path="url(#clip0_2_284)"><path d="M40 80C62.0914 80 80 62.0914 80 40C80 17.9086 62.0914 0 40 0C17.9086 0 0 17.9086 0 40C0 62.0914 17.9086 80 40 80Z" fill="#D80027"/><path d="M38.3622 32.6853L41.6442 37.208L46.9594 35.4845L43.6722 40.0033L46.9538 44.5258L41.6405 42.7958L38.3535 47.3145L38.3569 41.7269L33.0435 39.9969L38.3588 38.2734L38.3622 32.6853Z" fill="#F0F0F0"/><path d="M29.4053 51.3044C23.1622 51.3044 18.1009 46.2431 18.1009 40C18.1009 33.7569 23.1622 28.6956 29.4053 28.6956C31.3519 28.6956 33.1834 29.1879 34.7825 30.0544C32.2739 27.6009 28.8431 26.0869 25.0575 26.0869C17.3734 26.0869 11.1445 32.3159 11.1445 39.9998C11.1445 47.6837 17.3736 53.9128 25.0575 53.9128C28.8434 53.9128 32.2741 52.3986 34.7825 49.9453C33.1834 50.812 31.3519 51.3044 29.4053 51.3044V51.3044Z" fill="#F0F0F0"/></g><defs><clipPath id="clip0_2_284"><rect width="80" height="80" fill="white"/></clipPath></defs></svg>
