<svg width="1021" height="273" viewBox="0 0 1021 273" fill="none" xmlns="http://www.w3.org/2000/svg">
<path d="M113.53 65.3643C120.036 68.8088 123.864 76.0804 122.715 82.9694C121.95 87.562 118.888 92.1547 112.765 94.8337C111.617 95.5991 110.851 97.5127 111.617 99.0436C112.382 100.574 113.913 100.957 115.444 100.192C123.481 96.7473 127.308 90.6238 128.456 84.1175C129.987 74.5496 125.012 64.2161 115.827 60.0062C114.296 59.2408 112.765 60.0062 111.999 61.5371C111.234 63.068 111.999 64.5989 113.53 65.3643ZM65.3076 15.6108C102.431 -9.64872 162.136 -4.67336 191.988 33.5986C204.617 50.0555 211.889 72.636 209.593 102.105C207.679 127.748 201.173 149.18 186.63 164.871C172.086 180.563 149.506 190.131 115.827 192.427H115.061C114.678 192.044 114.296 192.044 113.913 192.427C104.728 193.575 82.9127 187.835 71.4311 172.143C70.2829 170.995 68.3693 170.612 67.2212 171.76C66.073 172.526 65.6903 174.439 66.8385 175.97C77.9373 190.896 97.8387 197.785 109.703 198.551L110.851 200.847C114.296 208.501 118.888 215.39 121.95 222.662C125.777 231.847 127.308 240.65 120.036 251.749C110.851 265.527 88.6535 272.415 66.4557 272.415C44.6407 272.798 22.8257 266.292 14.0232 251.366C-0.902863 226.106 -0.520144 197.785 2.54161 170.229C5.98609 141.143 12.1096 113.204 8.66512 91.3892C6.75152 77.2286 2.15889 61.1544 0.628014 46.2283C-0.902864 32.4504 -0.137425 19.438 8.66512 9.86997C11.7269 6.04278 18.2331 2.59831 25.1221 1.06743C36.2209 -1.22888 48.8507 0.684711 57.2705 13.6972L58.0359 14.8453C58.0359 15.228 58.0359 15.6108 58.4186 15.9935C62.2458 20.9689 65.6903 32.0677 65.6903 35.5122C65.6903 37.0431 66.8385 38.5739 68.7521 38.5739C70.2829 38.5739 71.4311 37.0431 71.4311 35.5122C71.4311 32.0677 68.7521 22.117 65.3076 15.6108Z" fill="white"/>
<path d="M262.333 7.57366C278.408 7.95638 299.074 13.6972 308.26 29.0059C314.383 38.9567 314.766 52.7346 306.729 71.4878C303.284 78.3768 296.778 83.7348 289.124 87.1793C276.877 93.3028 261.185 95.5991 250.086 93.3028C220.617 87.1793 211.049 50.0555 224.827 26.7096C231.333 15.6108 247.025 7.57366 262.333 7.57366ZM298.692 91.7719C302.902 94.0682 306.729 97.5127 308.642 101.723C317.445 119.328 317.828 137.316 317.062 156.834C315.914 178.267 313.235 200.847 316.297 224.958C320.124 252.897 300.605 268.588 278.408 272.033C255.827 275.477 230.185 266.292 222.53 243.329C217.938 228.785 219.086 219.217 221 209.65C222.148 201.612 223.679 193.958 223.296 184.007C222.53 163.34 219.469 147.266 219.851 133.106C219.851 120.859 222.53 110.525 232.098 100.192C233.247 99.0436 234.395 97.8954 235.926 96.7473C239.753 98.6609 243.58 100.192 248.173 101.34C262.716 104.402 283.766 100.957 298.692 91.7719Z" fill="white"/>
<path d="M457.305 82.2039C463.046 87.1793 466.873 92.9201 467.256 99.4263C468.021 106.315 464.959 113.587 457.688 120.859C456.539 122.007 456.539 123.92 457.688 125.069C458.836 126.217 460.749 126.217 461.898 125.069C470.7 116.266 473.762 107.463 473.379 99.0436C472.996 91.0065 468.404 83.3521 461.132 77.6113C459.984 76.4632 458.07 76.8459 456.922 77.994C455.774 79.1422 456.157 81.0558 457.305 82.2039ZM417.885 27.8578C442.379 11.4009 463.428 7.95638 481.034 11.4009C507.441 17.1416 525.429 37.8085 534.232 51.5864C560.639 93.6855 553.367 146.118 526.96 177.884C510.12 198.551 485.243 210.415 456.157 204.291L453.86 203.909C453.478 203.526 452.712 203.143 452.33 202.761C434.724 198.551 424.391 190.896 411.761 182.094C410.613 181.328 408.7 181.711 407.551 182.859C406.786 184.39 407.169 186.304 408.317 187.069C420.564 195.489 431.28 203.143 447.354 207.736L449.651 212.711C455.774 225.724 456.157 236.823 452.33 245.242C446.971 259.02 432.045 267.057 415.206 270.502C397.601 274.329 377.699 272.798 362.773 265.527C353.205 261.317 345.551 254.428 342.106 245.625C329.094 212.329 333.687 190.514 337.514 168.316C340.575 151.859 342.872 135.402 339.81 114.352C337.514 97.8954 332.156 80.6731 329.859 64.5988C328.328 49.6728 329.094 35.8949 339.045 24.0306C342.872 19.438 351.674 15.228 362.008 12.9317C375.403 9.48726 391.86 10.2527 404.49 21.3516C404.872 22.117 405.255 22.4997 405.638 22.8824C413.292 29.0059 417.502 38.5739 418.268 47.7592C418.65 49.6728 419.798 50.8209 421.712 50.4382C423.243 50.4382 424.391 48.9073 424.391 47.3765C423.626 40.8703 421.712 33.9813 417.885 27.8578Z" fill="white"/>
<path d="M677.799 55.4136C678.182 53.1173 678.947 50.0555 680.095 46.9938C682.392 38.9567 686.984 29.3887 695.787 23.2652C701.91 19.438 709.947 17.5244 720.664 18.6725C740.565 20.9689 753.195 27.0924 760.466 36.6603C767.355 45.8456 769.269 57.7099 768.886 70.3397C768.504 89.0929 763.146 108.994 759.318 125.834C758.17 130.427 758.553 136.933 759.318 144.204C760.849 154.155 763.146 166.019 764.676 179.032C768.121 208.884 765.059 243.329 721.429 262.082C645.651 294.23 575.996 246.773 565.28 197.402C553.033 139.995 558.773 96.7473 562.601 74.9323C568.341 43.932 579.057 27.4751 592.453 19.438C605.848 11.7836 620.774 12.9317 634.552 15.6108C654.836 19.8207 660.194 37.0431 664.787 60.3889L668.231 77.6113C664.404 106.698 662.49 143.822 668.614 175.97C664.404 176.353 660.577 177.501 657.515 179.032C653.688 180.946 650.626 183.242 649.095 185.155C648.33 186.686 648.712 188.6 649.861 189.365C651.391 190.514 653.305 190.131 654.07 188.6C655.219 187.452 657.132 185.538 660.194 184.39C663.256 182.859 667.083 181.711 671.676 181.711C672.058 181.711 672.058 181.711 672.441 181.711C677.799 181.711 683.54 183.625 689.281 188.217C690.429 189.365 692.342 188.983 693.491 187.834C694.639 186.304 694.256 184.773 693.108 183.625C686.984 178.649 680.478 176.353 674.737 175.587C666.7 135.402 672.058 86.0311 677.799 56.9445C677.799 56.179 677.799 55.7963 677.799 55.4136Z" fill="white"/>
<path d="M897.725 225.724L895.046 233.761C890.071 249.452 882.416 259.02 873.614 264.761C860.219 273.564 844.527 272.798 833.428 272.415C792.095 270.119 779.848 237.205 778.317 211.18C776.786 182.094 781.761 167.168 786.737 154.538C790.181 144.97 793.243 136.55 794.008 125.451C795.922 102.105 790.181 78.3768 789.033 57.7099C788.267 40.1048 790.946 25.5615 808.934 17.5244C834.959 6.4255 857.157 20.9689 863.28 35.8949L866.725 43.932L873.231 37.4258C882.034 28.2405 898.873 19.438 917.627 15.6108C945.565 9.86997 978.479 15.228 997.998 48.9073C1006.42 63.4507 1006.03 79.1422 1004.5 96.3646C1001.82 125.451 996.084 159.896 1015.22 204.291C1022.87 221.897 1020.96 238.353 1012.54 250.218C1004.12 262.465 989.195 270.502 971.59 272.033C951.689 273.564 931.022 272.798 918.009 259.02C912.651 253.28 908.824 245.242 906.528 234.144L904.231 221.514C910.355 185.538 912.651 126.599 906.528 99.809C916.096 95.9818 926.046 97.13 935.232 102.105C936.763 102.871 938.676 102.105 939.442 100.574C940.207 99.0436 939.442 97.5127 937.911 96.7473C919.54 87.1793 898.873 89.8583 884.33 110.525C883.565 112.056 883.565 113.97 885.095 114.735C886.626 115.883 888.54 115.501 889.305 113.97C892.75 108.994 896.96 105.167 901.17 102.488C906.91 130.809 904.231 192.427 897.725 225.724Z" fill="white"/>
</svg>
