<svg width="48" height="48" viewBox="0 0 48 48" fill="none" xmlns="http://www.w3.org/2000/svg">
<path d="M44 38V44H4V38C4 36.9 4.9 36 6 36H42C43.1 36 44 36.9 44 38Z" fill="#FF1FA5" stroke="#171717" stroke-width="1.5" stroke-miterlimit="10" stroke-linecap="round" stroke-linejoin="round"/>
<path d="M14 22H10V36H14V22Z" fill="#FF1FA5"/>
<path d="M22 22H18V36H22V22Z" fill="#FF1FA5"/>
<path d="M30 22H26V36H30V22Z" fill="#FF1FA5"/>
<path d="M38 22H34V36H38V22Z" fill="#FF1FA5"/>
<path d="M46 45.5H2C1.18 45.5 0.5 44.82 0.5 44C0.5 43.18 1.18 42.5 2 42.5H46C46.82 42.5 47.5 43.18 47.5 44C47.5 44.82 46.82 45.5 46 45.5Z" fill="#FF1FA5"/>
<path d="M42.74 11.4999L24.74 4.29993C24.34 4.13993 23.66 4.13993 23.26 4.29993L5.26 11.4999C4.56 11.7799 4 12.5999 4 13.3599V19.9999C4 21.0999 4.9 21.9999 6 21.9999H42C43.1 21.9999 44 21.0999 44 19.9999V13.3599C44 12.5999 43.44 11.7799 42.74 11.4999ZM24 16.9999C22.34 16.9999 21 15.6599 21 13.9999C21 12.3399 22.34 10.9999 24 10.9999C25.66 10.9999 27 12.3399 27 13.9999C27 15.6599 25.66 16.9999 24 16.9999Z" fill="#FF1FA5"/>
</svg>
