<svg width="48" height="48" viewBox="0 0 48 48" fill="none" xmlns="http://www.w3.org/2000/svg">
<path d="M42.5 25.5C43.34 25.5 44 24.82 44 24C44 23.16 43.34 22.5 42.5 22.5H40V18.1H42.5C43.34 18.1 44 17.44 44 16.6C44 15.78 43.34 15.1 42.5 15.1H39.54C38.58 11.92 36.08 9.42 32.9 8.46V5.5C32.9 4.68 32.22 4 31.4 4C30.58 4 29.9 4.68 29.9 5.5V8H25.5V5.5C25.5 4.68 24.82 4 24 4C23.18 4 22.5 4.68 22.5 5.5V8H18.12V5.5C18.12 4.68 17.44 4 16.62 4C15.78 4 15.12 4.68 15.12 5.5V8.46C11.92 9.42 9.42 11.92 8.46 15.1H5.5C4.68 15.1 4 15.78 4 16.6C4 17.44 4.68 18.1 5.5 18.1H8V22.5H5.5C4.68 22.5 4 23.16 4 24C4 24.82 4.68 25.5 5.5 25.5H8V29.9H5.5C4.68 29.9 4 30.56 4 31.4C4 32.22 4.68 32.9 5.5 32.9H8.46C9.4 36.08 11.92 38.58 15.12 39.54V42.5C15.12 43.32 15.78 44 16.62 44C17.44 44 18.12 43.32 18.12 42.5V40H22.52V42.5C22.52 43.32 23.18 44 24.02 44C24.84 44 25.52 43.32 25.52 42.5V40H29.9V42.5C29.9 43.32 30.58 44 31.4 44C32.22 44 32.9 43.32 32.9 42.5V39.54C36.08 38.58 38.58 36.08 39.54 32.9H42.5C43.34 32.9 44 32.22 44 31.4C44 30.56 43.34 29.9 42.5 29.9H40V25.5H42.5ZM34.52 28.52C34.52 31.82 31.82 34.52 28.52 34.52H19.48C16.18 34.52 13.48 31.82 13.48 28.52V19.48C13.48 16.18 16.18 13.48 19.48 13.48H28.52C31.82 13.48 34.52 16.18 34.52 19.48V28.52V28.52Z" fill="#FF1FA5"/>
<path d="M20.04 32.5H27.98C30.48 32.5 32.52 30.48 32.52 27.96V20.02C32.52 17.52 30.5 15.48 27.98 15.48H20.04C17.54 15.48 15.5 17.5 15.5 20.02V27.96C15.5 30.48 17.52 32.5 20.04 32.5Z" fill="#FF1FA5"/>
</svg>
